STARTFONT 2.3
FONT -FontForge-Satisfy-Book-R-Normal--32-320-72-72-P-139-ISO10646-1
SIZE 32 72 72  2
FONTBOUNDINGBOX 37 46 -7 -16
COMMENT "Generated by fontforge, http://fontforge.sourceforge.net"
COMMENT "Copyright (c) 2011 by Font Diner, Inc. All rights reserved."
STARTPROPERTIES 40
FOUNDRY "FontForge"
FAMILY_NAME "Satisfy"
WEIGHT_NAME "Book"
SLANT "R"
SETWIDTH_NAME "Normal"
ADD_STYLE_NAME ""
PIXEL_SIZE 32
POINT_SIZE 320
RESOLUTION_X 72
RESOLUTION_Y 72
SPACING "P"
AVERAGE_WIDTH 139
CHARSET_REGISTRY "ISO10646"
CHARSET_ENCODING "1"
FONTNAME_REGISTRY ""
CHARSET_COLLECTIONS "ISO10646-1"
BITS_PER_PIXEL 2
FONT_NAME "Satisfy-Regular"
FACE_NAME "Satisfy Regular"
COPYRIGHT "Copyright (c) 2011 by Font Diner, Inc. All rights reserved."
FONT_VERSION "1.001"
FONT_ASCENT 26
FONT_DESCENT 6
UNDERLINE_POSITION -3
UNDERLINE_THICKNESS 2
X_HEIGHT 12
CAP_HEIGHT 23
RAW_ASCENT 799
RAW_DESCENT 200
NORM_SPACE 9
RELATIVE_WEIGHT 40
RELATIVE_SETWIDTH 50
SUPERSCRIPT_X 0
SUPERSCRIPT_Y 15
SUPERSCRIPT_SIZE 20
SUBSCRIPT_X 0
SUBSCRIPT_Y 4
SUBSCRIPT_SIZE 20
AVG_LOWERCASE_WIDTH 132
AVG_UPPERCASE_WIDTH 181
ENDPROPERTIES
CHARS 227
STARTCHAR space
ENCODING 32
SWIDTH 280 0
DWIDTH 9 0
BBX 1 1 0 0
BITMAP
00
ENDCHAR
STARTCHAR exclam
ENCODING 33
SWIDTH 249 0
DWIDTH 8 0
BBX 10 25 -1 -1
BITMAP
000190
000FD0
000FC0
001FC0
002F80
002F40
003F00
007E00
007E00
00BD00
00FC00
00F800
01F400
02F000
02F000
03E000
07D000
07C000
0B8000
090000
000000
050000
3F8000
BF4000
690000
ENDCHAR
STARTCHAR quotedbl
ENCODING 34
SWIDTH 249 0
DWIDTH 8 0
BBX 9 10 1 14
BITMAP
014140
0B87C0
0F4BC0
1F4F80
2F0F40
2E1F00
3D2E00
7C3D00
783D00
B47800
ENDCHAR
STARTCHAR numbersign
ENCODING 35
SWIDTH 417 0
DWIDTH 13 0
BBX 15 17 -1 3
BITMAP
0002C0F0
000782D0
000B43C0
000F0780
02AFAFE8
0FFFFFFC
1A7D5E50
00781D00
00B43C00
15FABE50
7FFFFFE0
BBE5F940
03D1F000
07C2E000
0B83D000
0F47C000
04010000
ENDCHAR
STARTCHAR dollar
ENCODING 36
SWIDTH 292 0
DWIDTH 9 0
BBX 12 25 -1 -1
BITMAP
000040
0001D0
0001C0
001BE0
00BEB8
01F02D
03D02D
07C02D
07C03D
03D0B4
02E000
01F000
00F800
00BC00
003D00
002F00
240F40
F00F40
F00F40
F41F00
7DBD00
1BE000
074000
0B0000
040000
ENDCHAR
STARTCHAR percent
ENCODING 37
SWIDTH 574 0
DWIDTH 18 0
BBX 19 25 0 -1
BITMAP
0000000014
00BF0001F0
02EBC007D0
0B82D00F80
0F01E02E00
1E02D07C00
2D02D0F400
2D03C2E000
2D0B87C000
1E1F4F4000
1FFD2E0000
06E47C0000
0000F40000
0002D06400
000782FF00
000F4B8780
002E1F03C0
007C2D03C0
01F43C03C0
02E07C0780
0BC0780B40
1F403C1F00
3E003E7D00
BD001FF400
5000054000
ENDCHAR
STARTCHAR ampersand
ENCODING 38
SWIDTH 460 0
DWIDTH 15 0
BBX 16 26 -2 -2
BITMAP
000001A4
00001FBC
00007C2C
0000B43C
0001F078
0002E1F0
0002E7D0
0003FF40
0003FE00
0003F800
0007E000
001FE000
007FE000
01FFF000
07F2F000
0FD2F400
2F82F400
3F01F800
7D01FC06
BD00FC2C
BD00BDB0
7E00BF80
3F96BF00
1FFFFF80
06A92FD0
00000500
ENDCHAR
STARTCHAR quotesingle
ENCODING 39
SWIDTH 113 0
DWIDTH 4 0
BBX 5 10 1 14
BITMAP
0140
0B80
0F40
1F40
2F00
2E00
3D00
7C00
7800
B400
ENDCHAR
STARTCHAR parenleft
ENCODING 40
SWIDTH 234 0
DWIDTH 8 0
BBX 10 30 0 -4
BITMAP
000070
0001E0
0007C0
000F40
002E00
007C00
00B800
00F000
02E000
03D000
07C000
0B8000
0F4000
0F4000
1F0000
2F0000
3E0000
3E0000
3D0000
7D0000
7C0000
7C0000
7C0000
7C0000
7C0000
3C0000
2D0000
1E0000
0D0000
040000
ENDCHAR
STARTCHAR parenright
ENCODING 41
SWIDTH 204 0
DWIDTH 7 0
BBX 10 30 -4 -4
BITMAP
000180
0002C0
0001E0
0001E0
0001F0
0000F0
0000F0
0001F0
0001F0
0001F0
0001F0
0002F0
0002E0
0003E0
0003D0
0007C0
000B80
000F40
001F00
002E00
003D00
007C00
00B800
01F000
02E000
07C000
0F4000
3E0000
780000
500000
ENDCHAR
STARTCHAR asterisk
ENCODING 42
SWIDTH 327 0
DWIDTH 10 0
BBX 12 11 1 12
BITMAP
002F40
042F00
2D2E00
7F6C6C
1BFFFD
00BEA8
07EE00
2FCF80
2F4BD0
0A0790
000100
ENDCHAR
STARTCHAR plus
ENCODING 43
SWIDTH 350 0
DWIDTH 11 0
BBX 11 11 0 6
BITMAP
001E00
002E00
003D00
007C00
6AFEA8
FFFFFC
E9F954
00F400
01F000
02E000
029000
ENDCHAR
STARTCHAR comma
ENCODING 44
SWIDTH 200 0
DWIDTH 6 0
BBX 4 7 -1 -4
BITMAP
14
7E
FE
BE
2D
34
90
ENDCHAR
STARTCHAR hyphen
ENCODING 45
SWIDTH 353 0
DWIDTH 11 0
BBX 12 3 -1 8
BITMAP
2FFFFE
7FFFFD
550000
ENDCHAR
STARTCHAR period
ENCODING 46
SWIDTH 213 0
DWIDTH 7 0
BBX 5 4 -1 -1
BITMAP
0500
7F40
FF00
6800
ENDCHAR
STARTCHAR slash
ENCODING 47
SWIDTH 262 0
DWIDTH 8 0
BBX 16 25 -3 -1
BITMAP
00000015
000000BC
000001F4
000002E0
000007C0
00000F40
00001F00
00003D00
0000B800
0000F000
0002E000
0007C000
000B4000
001F0000
003D0000
007C0000
00F40000
02F00000
03D00000
0B800000
1F400000
2F000000
7D000000
FC000000
50000000
ENDCHAR
STARTCHAR zero
ENCODING 48
SWIDTH 489 0
DWIDTH 16 0
BBX 14 25 1 -1
BITMAP
00006400
000BFD00
002FAF00
00BD0B80
01F807C0
03F003C0
07D003D0
0FC003D0
1F4003D0
2F0003D0
3F0007D0
7E0007C0
BD000BC0
BD000F80
FC000F80
FC001F40
FC002F00
F8003E00
F800BD00
BC00F800
BC02F000
7D07D000
2F5F8000
1FFD0000
02900000
ENDCHAR
STARTCHAR one
ENCODING 49
SWIDTH 272 0
DWIDTH 9 0
BBX 8 25 0 -1
BITMAP
0004
002F
00BF
02FF
01FE
007D
00BC
00BC
00F8
00F4
01F0
02F0
02E0
03D0
07C0
07C0
0B80
0F40
1F00
2F00
3E00
3E00
7E00
7E00
1500
ENDCHAR
STARTCHAR two
ENCODING 50
SWIDTH 448 0
DWIDTH 14 0
BBX 15 25 -1 -1
BITMAP
00001640
0002EFF0
001F42F8
003E00F8
00BC00F8
01F800F8
01F801F8
00F802F4
000003F0
000007D0
00000FC0
00002F40
00007D00
0000F800
0003E000
001F8000
007E0000
01F80000
07E00000
1F800000
3E000000
BDAFF900
BFFFFF00
7FEABF00
24000500
ENDCHAR
STARTCHAR three
ENCODING 51
SWIDTH 462 0
DWIDTH 15 0
BBX 14 25 0 -1
BITMAP
00016500
002FFF80
00BE57E0
02F802F0
07E002F0
07D002F0
07E003F0
03F007E0
00400FC0
00002F40
0000BD00
0006F400
002FD000
007FF800
00102E00
00001F40
00001F40
00001F40
00002F00
6C003E00
FC00BD00
FD01F800
BF5BE000
2FFF8000
06A90000
ENDCHAR
STARTCHAR four
ENCODING 52
SWIDTH 452 0
DWIDTH 14 0
BBX 14 25 0 -1
BITMAP
00000040
00001BE0
00007FD0
0000FBC0
0002F7C0
000BD780
001F4B40
007D0F40
01F81F00
03E01E00
0FC02D00
3F003D00
BD05BE00
FFFFFF80
7FFAFF80
1400F940
0001F400
0002F400
0002F000
0003F000
0007F000
0007E000
000BE000
000BE000
00064000
ENDCHAR
STARTCHAR five
ENCODING 53
SWIDTH 444 0
DWIDTH 14 0
BBX 15 25 0 -1
BITMAP
00000540
001BFFF8
007FFFF8
00796BF8
00B40070
00F00000
01E00000
02D00000
03C00000
07815000
0B5FFD00
0FBFFE00
1FF42F00
0FD01F00
06400F00
00001F00
00001E00
00002D00
1C003C00
7C00B800
FD01F000
FF5BD000
BFFF4000
2FFD0000
0A900000
ENDCHAR
STARTCHAR six
ENCODING 54
SWIDTH 477 0
DWIDTH 15 0
BBX 13 25 1 -1
BITMAP
00005500
0002FF40
000F9B80
002E0BC0
00BC0B80
01F41F40
03E01900
07D00000
0F800000
1F4BF400
2F7EBD00
3FF82E00
7FF01F00
BFD01F40
BEC01F40
BC001F00
FC002F00
BC003E00
BC007D00
BC00BC00
7D01F400
3E03E000
2F5BC000
0FFE0000
02A40000
ENDCHAR
STARTCHAR seven
ENCODING 55
SWIDTH 406 0
DWIDTH 13 0
BBX 14 25 1 -1
BITMAP
00015500
07FFFFC0
1FFFFFD0
1F9403D0
18000B80
00001F00
00003D00
0000B800
0001F000
0007D000
000BC000
001F4000
003E0000
00BD0000
00F80000
02F40000
03F00000
0BD00000
0FC00000
1F800000
2F400000
3F000000
7F000000
7F000000
14000000
ENDCHAR
STARTCHAR eight
ENCODING 56
SWIDTH 444 0
DWIDTH 14 0
BBX 15 25 -1 -1
BITMAP
00001540
0001FAE0
0007D078
000F402C
002E003C
003E0078
003E00F4
003E02E0
003F0BC0
002FBF40
001FFC00
000FF000
002FF400
00BDFC00
02F0BD00
0BD07E00
1F403F00
2F002F00
3D002F40
7C002F00
7C003E00
7D00BD00
3E02F400
1FEFD000
01A90000
ENDCHAR
STARTCHAR nine
ENCODING 57
SWIDTH 462 0
DWIDTH 15 0
BBX 14 25 0 -1
BITMAP
00005400
0007FF40
002F4780
007D02D0
00F801E0
02F001E0
03D001E0
07C001F0
0B8007E0
0F800BE0
0F400FE0
0F402FD0
0F403FD0
0F80BBC0
0BD1E780
03FF8B40
01B91F00
00002E00
00007D00
2400F800
3803F000
7E1FD000
7FFF4000
2FFD0000
06900000
ENDCHAR
STARTCHAR colon
ENCODING 58
SWIDTH 226 0
DWIDTH 7 0
BBX 6 10 -1 -1
BITMAP
06E0
0FF0
0FD0
0000
0000
0000
0500
7F40
FF00
6800
ENDCHAR
STARTCHAR semicolon
ENCODING 59
SWIDTH 212 0
DWIDTH 7 0
BBX 6 13 -1 -4
BITMAP
0BD0
2FD0
2F80
0000
0000
0000
1400
7E00
FE00
BE00
2D00
3400
9000
ENDCHAR
STARTCHAR less
ENCODING 60
SWIDTH 271 0
DWIDTH 9 0
BBX 11 14 -1 3
BITMAP
000064
000BE0
002F80
00BD00
07F400
1FD000
7F4000
3F0000
1F4000
0BC000
07E000
02F400
00F800
001400
ENDCHAR
STARTCHAR equal
ENCODING 61
SWIDTH 374 0
DWIDTH 12 0
BBX 12 7 0 7
BITMAP
0BFFFE
2FFFFD
254000
015540
7FFFF4
FFFFF0
500000
ENDCHAR
STARTCHAR greater
ENCODING 62
SWIDTH 250 0
DWIDTH 8 0
BBX 10 14 -2 3
BITMAP
01A000
00F800
00BD00
003F00
001F40
000BC0
0007E0
000BE0
003F80
00FD00
07F400
1FC000
7E0000
500000
ENDCHAR
STARTCHAR question
ENCODING 63
SWIDTH 413 0
DWIDTH 13 0
BBX 16 25 -1 -1
BITMAP
00016A40
001FFFF4
00BF55FD
02F8007E
03F0003E
03E0003E
02F0007D
000000BD
000000F8
000002F0
00000BD0
00007F40
001BF800
00FF9000
01F80000
02F00000
03F00000
07E00000
07D00000
0B400000
04000000
05000000
2FC00000
7FC00000
2E000000
ENDCHAR
STARTCHAR at
ENCODING 64
SWIDTH 648 0
DWIDTH 21 0
BBX 22 22 -1 -1
BITMAP
000005540000
0001BFFF8000
000BE401F400
007E40002D00
01F801900F00
03E00BF94B40
0B807D7F8780
1F41F47F83C0
2E03D0BF43C0
7D0B405F03D0
B81F002D03C0
B82D003C03C0
B43D007807C0
B47C00F40B80
B47C02E00F40
783E6FD02E00
3C1FFAC07C00
2E0543C1F400
0F8003EBD000
02F402FF4000
006F80540000
000140000000
ENDCHAR
STARTCHAR A
ENCODING 65
SWIDTH 552 0
DWIDTH 18 0
BBX 19 32 -3 -8
BITMAP
0000000150
0000001FF8
000000BDBC
000002E07C
000007C078
00001F4078
00002E00B4
00007D00F4
0000F800F4
0001F401F0
0002F002F0
0003E002E0
0007D003E0
000BC007D0
000F8007D0
002F400BC0
003F554BC0
007FFFFFE4
1BFFFFFFF0
BEFD006FD0
01FC002F40
02F8002F00
03F4003F00
07F0003F00
0BE0003E00
0FE0007E00
2FD0007E00
3F80007F00
BF40007F00
A400003F80
0000003F80
0000001400
ENDCHAR
STARTCHAR B
ENCODING 66
SWIDTH 607 0
DWIDTH 19 0
BBX 19 30 0 -6
BITMAP
0001E65000
0007FFFE40
00BFE41FD0
03FFD007F0
03EFC003F4
028F8002F8
001F4002F8
002F0003F4
003E0007F0
003D000BE0
007C001FC0
00BC003F40
00F800BD00
01F457F400
02FBFFD000
03FFFEF400
03EB90BC00
07D0003E00
0BC0002F40
0FC0002F80
1F80002F80
2F40002F80
2F40003F40
3F0000BF00
7E0001FE00
BE0003FC00
FD001FF000
FD01BF8000
FFBFF90000
1BFA500000
ENDCHAR
STARTCHAR C
ENCODING 67
SWIDTH 548 0
DWIDTH 18 0
BBX 18 30 0 -6
BITMAP
000001A400
00002FFF40
0001FD0BC0
000BE007D0
001FC007E0
007F4007E0
00BD000BE0
01FC000FE0
03F4001FD0
07F0007FC0
0FE0007F40
1FD0001900
2FC0000000
3F80000000
3F40000000
7F00000000
BF00000000
BE00000000
FE00000000
FE00000000
FD00000000
FD00000000
FD00001000
BE00003400
7E0000A000
3F4002D000
2F801F4000
0BFABE0000
02FFF40000
006A400000
ENDCHAR
STARTCHAR D
ENCODING 68
SWIDTH 632 0
DWIDTH 20 0
BBX 19 30 0 -6
BITMAP
0001650000
002FFFE000
01FFFFFD00
02F9007F40
01D0000FC0
00064007E0
002F4003F0
003F4002F8
003F0001F8
007F0001FC
007E0001FC
00BD0001FC
00BD0001FC
00FC0001FC
00F80002FC
01F80002F8
02F40003F4
02F00007F0
03E0000BE0
07E0000FD0
0BD0002F80
0BC0003F40
0F8000BE00
1F4001FC00
2F0007F000
3E001FD000
BE00BF4000
FE57F80000
7FFFD00000
06A9000000
ENDCHAR
STARTCHAR E
ENCODING 69
SWIDTH 523 0
DWIDTH 17 0
BBX 19 30 -1 -6
BITMAP
0000016500
00002FFF80
0001FD02E0
000BE001F0
002F8001F4
007F0002F0
00FE0003F0
01FC000BE0
02FC002FC0
02FC007F40
02FC000000
01FC000000
00BE000000
003F400000
000BEA0000
001FFF4000
01FD590000
07E0000000
1F80000000
3F00000000
7E00000000
BD00000600
FD00000D00
FE00002C00
FE00007800
BF4001F000
3FD007D000
1FFABF4000
07FFFD0000
006A900000
ENDCHAR
STARTCHAR F
ENCODING 70
SWIDTH 585 0
DWIDTH 19 0
BBX 18 30 1 -6
BITMAP
0000555400
006FFFFF40
07FE956FD0
2FD00007D0
7F000007D0
BF000007C0
BFA8000F80
3FF4001F00
0BE0002E00
0000007C00
000000B800
000001F400
000002E000
02ABFFFA40
0BFFFFFF00
0F941F8400
00002F0000
00007E0000
0000BD0000
0001FC0000
0002F80000
0003F00000
0007E00000
000BD00000
000FD00000
001FC00000
002FC00000
002FC00000
003FC00000
0029400000
ENDCHAR
STARTCHAR G
ENCODING 71
SWIDTH 612 0
DWIDTH 20 0
BBX 19 30 0 -6
BITMAP
0000006900
00001BFF40
00007E4BD0
0002F803E0
0007E002E0
001FC003E0
003F4003E0
00BE0007E0
00FD000FD0
02F8002FC0
03F4003F80
0BF0001E00
0FE0000000
1FD0000000
2FC0000000
2FC0000000
3F805ABFF4
7F40BFFFF0
7F40555F80
7F00001F00
7F00002E00
7F00003D00
7E0000BC00
7F0000F800
3F0002F000
2F0007D000
1F801F8000
0BD07E0000
02FBF80000
007F900000
ENDCHAR
STARTCHAR H
ENCODING 72
SWIDTH 649 0
DWIDTH 21 0
BBX 22 29 -1 -6
BITMAP
0001F40002E0
0003F0000BE0
0007E0000FD0
0007E0001FC0
000BD0001F80
000FC0002F40
001F80003F00
001F40007E00
002F4000BD00
003F0000BC00
003E0000F800
007D0001F400
00BC0002F000
00FEAFFFFF40
02FFFFFFFF40
0BFABC07EE00
02F41F0BC000
02F0078B8000
03E002DF8000
07E001EF4000
07D000FF0000
0BD000BF0000
0FC0007E0000
1FC0007D0000
1F8000BD0000
2F8000BC0000
3F4000FC0000
3F4000FC0000
790000540000
ENDCHAR
STARTCHAR I
ENCODING 73
SWIDTH 537 0
DWIDTH 17 0
BBX 20 30 -3 -6
BITMAP
0000000150
0000001FF4
000000BEB8
000002F8B8
000007F0B8
00000BD0F8
00001FC0F4
00001F81F4
00002F42F4
00002F42F0
00002F03F0
00002F07E0
00001F0BD0
00000F0BD0
00000B4FC0
0000071F80
0000002F40
000016BFA9
001BFFFFE9
01FFE5BD00
0BF900BC00
2FD000F800
3F4001F400
7F0002E000
7F0003D000
3F400B8000
1FC01F4000
0BF43D0000
02FFF40000
002A900000
ENDCHAR
STARTCHAR J
ENCODING 74
SWIDTH 500 0
DWIDTH 16 0
BBX 22 30 -3 -6
BITMAP
000000155400
00000BFFFFE0
00001FFFFFE0
00000902F000
00000003E000
00000007E000
0000000BD000
0000000BC000
0000000FC000
0000001F8000
0000002F4000
0000002F4000
0000003F0000
0000007E0000
000000BE0000
001A00FD0000
00BF40FC0000
02FF41FC0000
07F902F80000
0FE003F40000
1F8003F00000
3F0007E00000
3D000BD00000
7C001F800000
BC002F400000
BC003E000000
7C00BD000000
3D01F4000000
1F5BD0000000
06FE00000000
ENDCHAR
STARTCHAR K
ENCODING 75
SWIDTH 497 0
DWIDTH 16 0
BBX 19 33 -2 -9
BITMAP
0000140004
0001F800BC
0002F400FC
0003F000FC
0007E001FC
000BD002F8
000FC003F0
001F800BE0
002F400FC0
003F002F40
003E00BE00
007D01F800
00BC07E000
00F81F8000
00F8BD0000
01FBE40000
02FFEA4000
07FABFD000
03E007F000
07D003F400
0BD002F000
0BC003F000
0FC007E000
1F800BD000
1F800FC000
2F401F8000
3F402F4000
3F403F0000
7F403F0000
69002F4000
00000FD000
000007FFD0
000000AA40
ENDCHAR
STARTCHAR L
ENCODING 76
SWIDTH 492 0
DWIDTH 16 0
BBX 20 31 -3 -7
BITMAP
0000000054
00000007FE
0000001FFF
0000003F6F
000000BD2F
000000FC2E
000001F87D
000002F5F8
000003F7F0
000003FFC0
004007FE00
00FABFF800
007FFFC000
00055F8000
00001F8000
00001F4000
00002F0000
00003E0000
00007D0000
0000BC0000
0000F80000
0001F40000
0002F00000
0003D00000
1BFF800000
BFFF800000
F97FF40060
FAF6FF9BD0
BF807FFFC0
000007FF40
0000001400
ENDCHAR
STARTCHAR M
ENCODING 77
SWIDTH 733 0
DWIDTH 23 0
BBX 26 30 -3 -6
BITMAP
00000010000040
000001F80007F0
000007F8001FF0
00000BF8002FF0
00000FF8007FE0
00001FB800BEE0
00002EB800F7D0
00003DB802F3D0
00007DB803D7C0
0000BCB80BCB80
0000F8F80F4F80
0001F4F41F0F40
0002F4F42D1F00
0003F0F47C2F00
0003E1F4B83E00
0007D1F0F03D00
070BD1F2E07D00
0E0BC1F3D0BC00
2D0F81FBC0BC00
3C1F81FF80F800
781F41FF41F400
B42F01FF01F400
F03F00FE02F400
F07E00FE03F000
F0BD00BD03F000
F0FC001007F000
F5F8000007F400
BFF4000007F800
7FE0000002FD00
1A80000000A900
ENDCHAR
STARTCHAR N
ENCODING 78
SWIDTH 541 0
DWIDTH 17 0
BBX 23 30 -2 -6
BITMAP
000000000680
0006D0002FE0
000BE0007FF0
000FE000FC74
001FE001F470
002FF002F0F0
002FF003E1E0
003EF007D3C0
007DF007DF40
0078F06BFD00
00B8F02FE000
00F4F00F8000
00F0B40F4000
01F0B41F4000
02E0B41F0000
03E0B42F0000
03D0B42E0000
07C0B43E0000
0BC0B43D0000
0F80B87D0000
0F8078BC0000
1F8078BC0000
2F407CF80000
2F403DF40000
3F403EF00000
3F402FF00000
7F402FE00000
7F401FD00000
3F800FC00000
190006400000
ENDCHAR
STARTCHAR O
ENCODING 79
SWIDTH 567 0
DWIDTH 18 0
BBX 17 30 0 -6
BITMAP
00002E5000
0001FFF800
0007FEBD00
001FE43E00
003F402F00
00BD002F00
00FC001F40
02F4001F40
03F0001F40
07D0001F80
0BC0001F80
1F80001F40
1F80001F40
2F40001F40
3F00002F40
3F00002F00
7E00003F00
7E00007E00
BD00007D00
BD0000BC00
BD0000F800
BD0001F400
BD0002F000
BD0007E000
7D000BC000
3E001F4000
2F007E0000
1F41F80000
0BEFE00000
01FE400000
ENDCHAR
STARTCHAR P
ENCODING 80
SWIDTH 552 0
DWIDTH 18 0
BBX 20 30 -2 -6
BITMAP
000005A940
0001BFFFE0
001BF906F8
007FF400BD
01FDF0007E
00F1F0003F
0042E0003F
0003D0003F
0007C0003F
0007C0007E
000B8000BD
000F4001FC
001F4002F4
002F000BE0
002E002F80
003E01FE00
007D1BF400
00BFFF4000
00FE940000
00F8000000
01F8000000
02F4000000
03F4000000
03F0000000
07E0000000
0BD0000000
0FD0000000
2FC0000000
7F40000000
1500000000
ENDCHAR
STARTCHAR Q
ENCODING 81
SWIDTH 583 0
DWIDTH 19 0
BBX 17 30 1 -6
BITMAP
00001A4000
0002FFE000
001FE5F800
007F407D00
01FD002E00
02F8001F00
07E0001F40
0FD0001F40
1F80001F40
2F40001F80
7F00001F40
7E00001F40
BD00002F40
FD00003F00
FC00003F00
FC00007E00
FC0000BD00
FC0000FC00
FC0002F800
7E0003F400
3F9007E000
0BD00FD000
00001F8000
01A93F0000
1FFFFD0000
7F57F80000
BD0BFD0000
BD7FAF8000
7FFD07F500
1B90006E00
ENDCHAR
STARTCHAR R
ENCODING 82
SWIDTH 560 0
DWIDTH 18 0
BBX 20 32 -1 -8
BITMAP
000016A900
0006FFFFD0
002FE41BF0
01FFD002F8
03F7D000FC
02D7C000BD
01478000BD
000B8000BD
000F4000FD
001F0000FC
001F0001F8
002E0003F4
003D000BE0
007D001F80
00BD007F00
03FF92F800
0BFAFFE000
07FFFE0000
02FEAE0000
02F41F0000
03F00F4000
07E00F8000
07E00B8000
0BD00BC000
0FC00BC000
1FC00BD000
2F800BD000
7F4007D000
BE0007E000
140003FA80
000002FF40
0000006800
ENDCHAR
STARTCHAR S
ENCODING 83
SWIDTH 474 0
DWIDTH 15 0
BBX 18 30 -2 -6
BITMAP
000006A800
0000BFFF40
0003F90BD0
000FE003E0
002F4003E0
007E0003E0
007D0007E0
00BD000BD0
00BD000FC0
007E001A00
007F400000
002FC00000
000FE00000
0007F80000
0002FE0000
0000BF4000
00003F8000
00001FC000
00000FD000
000007D000
000007D000
054003D000
2F4003C000
7F0007C000
7F000B8000
7F001F4000
3F402E0000
2FD1BC0000
0FFFF00000
02FF400000
ENDCHAR
STARTCHAR T
ENCODING 84
SWIDTH 423 0
DWIDTH 14 0
BBX 16 30 1 -6
BITMAP
00004000
6BFFFFFE
BFFFFFFF
FF97F000
5007E000
000BD000
000FC000
000F8000
001F4000
002F4000
003F0000
003E0000
007D0000
00BC0000
00BC0000
00F80000
01F40000
02F40000
02F00000
03E00000
07E00000
07D00000
0BD00000
0FC00000
0FC00000
1F800000
2F800000
3F400000
3F400000
29000000
ENDCHAR
STARTCHAR U
ENCODING 85
SWIDTH 574 0
DWIDTH 18 0
BBX 20 29 0 -6
BITMAP
000AC000BD
003F8001FC
007F4002F8
00BF0003F4
00FE0007F0
00FD0007E0
01FC000BE0
02F8000FD0
03F4001FC0
07F0001F80
0BE0002F40
0BD0003F00
0FC0007E00
1F80007D00
1F4000BD00
2F4000FC00
2F0000F800
3E0001F800
7E0002F400
7D0003F400
7D0007F000
BD000BF000
BD000FF000
BD002FE000
BD007FE000
7E01F6E000
3F9BE2F000
1FFF41F400
06A8005000
ENDCHAR
STARTCHAR V
ENCODING 86
SWIDTH 503 0
DWIDTH 16 0
BBX 17 30 1 -6
BITMAP
0000000100
02F4000F40
07E0001FC0
0BD0003F40
0FC0007E00
1F8000BD00
1F4000FC00
2F0002F800
2F0003F000
3E0007E000
3E000BD000
7D000FC000
7D001F8000
7C001F4000
BC002F0000
BC003E0000
BC007D0000
BC00BC0000
7C00F80000
7C01F40000
7C02F00000
7C03E00000
3D07C00000
3D0B800000
2E0F400000
2E1E000000
1F7D000000
0FF8000000
07F4000000
02D0000000
ENDCHAR
STARTCHAR W
ENCODING 87
SWIDTH 817 0
DWIDTH 26 0
BBX 26 30 0 -6
BITMAP
00000000000190
001FC000000FE0
003F4006000FE0
007E001F400BE0
00BD003F400BE0
00FC007F000BE0
01F400BF000BD0
02F000FE000BD0
03E000FD000BC0
07D000FC000BC0
0BC001FC000FC0
0FC001F8000F80
0F8001F4001F40
1F4001F0002F40
2F0002F0002F00
2F0003E0003E00
3E0007E0007D00
3D000BE000BC00
3D000FE000F800
3D001FD001F400
7D002FD002F000
7D007ED003E000
3D00BAD007D000
3D00F6E00B8000
3D02E1E01F4000
2E07D1F02E0000
2F0F80F4BC0000
1FFF00FEF40000
0BFC007FD00000
02E0002F400000
ENDCHAR
STARTCHAR X
ENCODING 88
SWIDTH 579 0
DWIDTH 19 0
BBX 23 30 -1 -6
BITMAP
002A00000040
01FF800007F0
03DBD0001FF4
0783E0007F80
0B42F000FE00
0F41F002F800
0F80F407F000
0BE6F40FD000
03FFF82F4000
01FDB87E0000
00147CFC0000
00007EF40000
00007FE00000
00003FC00000
00003F400000
00007E000000
0000FE000000
0002FE000000
0007FE000000
000FEE000000
002F5F000000
007E1F000000
00FC0F400000
02F80F800000
07F00B800000
0FD00BC00200
2F8007D00D00
BF0003F5B800
FD0001FFE000
1000006E4000
ENDCHAR
STARTCHAR Y
ENCODING 89
SWIDTH 532 0
DWIDTH 17 0
BBX 18 30 0 -6
BITMAP
0005000050
007F0003F0
00BE0007E0
00FD000BE0
01FC000FD0
02F8000FC0
03F4001F80
03F0002F40
07E0002F00
0BD0003E00
0FC0007E00
0F8000BD00
1F4000FC00
1F4001F800
2F0002F800
2F0007F400
3E000FF000
3F002EE000
2F40B9E000
2FEBE2D000
0BFF83C000
01A4078000
00000F4000
00001F0000
00003E0000
1C00BC0000
7F42F40000
BFFFE00000
7FFF400000
0AA4000000
ENDCHAR
STARTCHAR Z
ENCODING 90
SWIDTH 455 0
DWIDTH 15 0
BBX 19 30 -3 -6
BITMAP
0000055500
000BFFFFF8
000FFFFFF8
001FE955F8
00140001F8
00000002F4
00000007F0
0000000FD0
0000002F80
0000007F00
000001FD00
000003F800
00000BE000
00001F8000
00007F0000
0000FD0000
0003F40000
000BE00000
002F800000
007F000000
00FD000000
02F4000000
07E0000000
0FC0000000
1F40000000
3E00550000
7EAFFFF800
7FFFFFF800
7FFAFFE000
2500014000
ENDCHAR
STARTCHAR bracketleft
ENCODING 91
SWIDTH 202 0
DWIDTH 6 0
BBX 12 31 -2 -4
BITMAP
000069
0002FD
0003F9
0007C0
000B80
000F40
001F00
001E00
002D00
003C00
007C00
00B800
00B400
00F000
01F000
02E000
02D000
03C000
07C000
0B8000
0B4000
0F4000
0F0000
1E0000
2E0000
2D0000
3D0000
7C0000
7E4000
7FC000
294000
ENDCHAR
STARTCHAR backslash
ENCODING 92
SWIDTH 273 0
DWIDTH 9 0
BBX 7 25 1 -1
BITMAP
1400
B800
BC00
7C00
7C00
7D00
3D00
3D00
2E00
2E00
1E00
1F00
0F00
0F40
0B40
0B80
0B80
07C0
07D0
03D0
03E0
02F0
02F0
01F4
0050
ENDCHAR
STARTCHAR bracketright
ENCODING 93
SWIDTH 216 0
DWIDTH 7 0
BBX 11 31 -3 -4
BITMAP
000554
000BFC
0005F8
0000B8
0000B4
0000F4
0000F0
0001E0
0001E0
0002D0
0003D0
0007C0
000780
000B40
000F40
000F00
001E00
002E00
003D00
003C00
007800
00B800
00F400
01F000
02E000
02D000
03C000
0B8000
AF8000
FF0000
A90000
ENDCHAR
STARTCHAR asciicircum
ENCODING 94
SWIDTH 287 0
DWIDTH 9 0
BBX 11 12 -1 11
BITMAP
0007F0
000FF0
002EF0
007CF4
00F4F4
01F0B4
03D0B8
0B80B8
1F00B8
2E00BC
7C007C
500014
ENDCHAR
STARTCHAR underscore
ENCODING 95
SWIDTH 439 0
DWIDTH 14 0
BBX 17 4 -4 -1
BITMAP
0155555000
3FFFFFFF80
7FFFFFFF80
1500001500
ENDCHAR
STARTCHAR grave
ENCODING 96
SWIDTH 567 0
DWIDTH 18 0
BBX 6 4 8 18
BITMAP
6400
BE00
2FD0
02E0
ENDCHAR
STARTCHAR a
ENCODING 97
SWIDTH 435 0
DWIDTH 14 0
BBX 18 14 -1 -1
BITMAP
000BE00000
007FF40000
01F4F40000
03E17C0000
0BC07C0000
1F40780050
2F00B801D0
3E00F40380
7D01F00A00
7D07F02C00
7E1EF0B400
7FFCF6D000
2FE0BF4000
0500140000
ENDCHAR
STARTCHAR b
ENCODING 98
SWIDTH 415 0
DWIDTH 13 0
BBX 17 24 0 -1
BITMAP
0009000000
003E000000
00BE000000
00FE000000
01FD000000
02FC000000
03F8000000
07F4000000
0BF0000000
0FE0000000
1FD0000000
2FC0500000
2F83F00140
3F47F56E00
7E02FFE400
7D00F40000
7801F00000
B802E00000
B403D00000
780B800000
781F000000
3DBD000000
1FF4000000
0540000000
ENDCHAR
STARTCHAR c
ENCODING 99
SWIDTH 363 0
DWIDTH 12 0
BBX 15 14 -1 -1
BITMAP
006FD000
01FDF000
07E1F000
0BC3E000
1F43D000
2E010008
3D000028
7D000070
7C0001D0
7D000740
3E002D00
2F91F400
0BFF9000
01A90000
ENDCHAR
STARTCHAR d
ENCODING 100
SWIDTH 483 0
DWIDTH 15 0
BBX 19 24 -1 -1
BITMAP
0000000400
0000002F00
0000007F00
0000007F00
000000BF00
000000FF00
000001FE00
000002FD00
000002FC00
000003F800
001A47F400
00BEDBF000
02E0BBD000
07C07FC000
0F407F4000
1E002E0008
3D002D0028
3C003C00B0
7C00B801D0
7C02F80740
7D0BB41D00
3FBD7DB400
1FE03FD000
0100190000
ENDCHAR
STARTCHAR e
ENCODING 101
SWIDTH 372 0
DWIDTH 12 0
BBX 14 14 0 -1
BITMAP
006F8000
02FFC000
0B87C000
1F078000
3D0F0000
7C7D0010
B9F40070
FF8001D0
FD000780
F8001E00
FC00B800
7E57D000
2FFE4000
06A40000
ENDCHAR
STARTCHAR f
ENCODING 102
SWIDTH 325 0
DWIDTH 10 0
BBX 17 38 -3 -15
BITMAP
0000140000
0002F80000
0002F80000
0001F80000
0001F80000
0002F40000
0002F00000
0003E00000
0003D00000
0007C00000
000B800000
000B800000
000F400000
001F005540
002E6FFA40
007FF90000
01FE400000
03F8000000
03F4000000
02F4000000
02FE000000
02EF400000
03C7D00000
07C2E00000
0B80F40000
0F40B80000
0F00B80000
1F00B80000
2E00B80000
3D00F40000
3D01F00000
7C03E00000
B80BD00000
B81F800000
F8BE000000
FFFC000000
BFE0000000
7E40000000
ENDCHAR
STARTCHAR g
ENCODING 103
SWIDTH 459 0
DWIDTH 15 0
BBX 18 29 -1 -16
BITMAP
001B800000
00BFD3C000
02E0BB8000
07C07F4000
0F407F4000
1F003F0010
2E002E0070
3D002E01D0
3D007D0740
3D00BC2D00
2E02F8B400
2FEFBFD000
0FF8FE0000
0152F40000
000BF00000
002FE00000
01F6D00000
07D3D00000
1F47C00000
2E0B800000
7C0B800000
7C0F400000
781F000000
782F000000
7C3E000000
3DBC000000
1FF8000000
0BF4000000
0190000000
ENDCHAR
STARTCHAR h
ENCODING 104
SWIDTH 465 0
DWIDTH 15 0
BBX 18 23 -1 -1
BITMAP
002B400000
003F400000
003F000000
003F000000
007E000000
00BD000000
00BC000000
00F8000000
01F4000000
01F0140000
02E1FF0000
03DBFF4000
03ED2F4000
07F41F0000
0BD02F0000
0F803E0070
0F407D01D0
1F00B80380
2F00F41E00
3E00F47800
3D00FFD000
7D00BF4000
1800240000
ENDCHAR
STARTCHAR i
ENCODING 105
SWIDTH 274 0
DWIDTH 9 0
BBX 11 22 0 -1
BITMAP
001400
007C00
00FC00
00B400
000000
000000
000000
000000
004000
0BC000
0FC000
1F8000
2F0000
3E0008
3E002C
7D0074
7C01D0
780780
782E00
3EF800
1FD000
010000
ENDCHAR
STARTCHAR j
ENCODING 106
SWIDTH 267 0
DWIDTH 9 0
BBX 19 35 -7 -14
BITMAP
0000007400
000001F400
000002F000
0000019000
0000000000
0000000000
0000000000
0000000000
0000000000
00001F4000
00002F0000
00003E0000
00007D0000
0000BD0024
0000BC00B0
0000F802C0
0001F40B40
0002F02D00
0002F1F000
0003E78000
0003FE0000
0007F40000
001FC00000
007F800000
01FF800000
07DF400000
0F5F000000
2E2E000000
3D3D000000
B83D000000
B47C000000
B4B8000000
74F4000000
3EE0000000
1FC0000000
ENDCHAR
STARTCHAR k
ENCODING 107
SWIDTH 440 0
DWIDTH 14 0
BBX 17 23 -1 -1
BITMAP
003F000000
003F000000
007F000000
007E000000
007D000000
00BC000000
00F8000000
00F4000000
01F0000000
02E0680000
02D2FE0000
03CBBF0000
07AD2E0000
07F02D0000
0BC0B40000
0F6FD000C0
1E3FE00380
1D19F00B00
2D01E02D00
3C02D0B400
7C03E6D000
B802FF4000
6401F80000
ENDCHAR
STARTCHAR l
ENCODING 108
SWIDTH 218 0
DWIDTH 7 0
BBX 8 23 -1 -1
BITMAP
002F
003F
003F
007E
007D
00BD
00FC
00F8
01F4
02F0
03F0
03E0
07D0
0BC0
0BC0
0F80
1F40
2F00
2F00
3E00
7D00
7C00
1400
ENDCHAR
STARTCHAR m
ENCODING 109
SWIDTH 717 0
DWIDTH 23 0
BBX 26 14 0 -1
BITMAP
00001400400000
0681FD07F40000
0FCBFD2FF80000
0FAD7EBAF80000
1FF43FD0F80000
1FD03F41F80050
2F807E01F401C0
3F00BD02F00340
7E00B803F00A00
7D00F407E02C00
BC01F007D0B400
FC02F007E6D000
F803E007FF4000
90014001A40000
ENDCHAR
STARTCHAR n
ENCODING 110
SWIDTH 461 0
DWIDTH 15 0
BBX 18 14 -1 -1
BITMAP
0000140000
02F1FE0000
03EBFF0000
07FD2F0000
07F42F0000
0BE02E0020
0F803E0060
0F407D01D0
1F00BC0380
2F00F80E00
3E00F82C00
7D00F9F000
7C00FF8000
5000290000
ENDCHAR
STARTCHAR o
ENCODING 111
SWIDTH 393 0
DWIDTH 13 0
BBX 16 14 0 -1
BITMAP
00A40000
07FF4000
0F87C001
2F02D00A
7F02E078
BF02E2E0
FB92FF40
F2FFF400
F0AFC000
F00B8000
F41F4000
B97E0000
7FF80000
06500000
ENDCHAR
STARTCHAR p
ENCODING 112
SWIDTH 451 0
DWIDTH 14 0
BBX 21 27 -4 -14
BITMAP
000100500000
001F87F80000
000FDFFC0000
000FF47D0000
001FD03D0000
001F803C0040
002E007C0240
003D00B80B00
007C01F41D00
007D43E07400
00BFEBC2D000
00FFFF9F4000
01FBFFFD0000
01F2E5500000
02E000000000
03D000000000
07D000000000
07C000000000
0BC000000000
0F8000000000
1F4000000000
1F4000000000
2F0000000000
3F0000000000
7E0000000000
3E0000000000
140000000000
ENDCHAR
STARTCHAR q
ENCODING 113
SWIDTH 462 0
DWIDTH 15 0
BBX 16 28 0 -15
BITMAP
00150100
01FF5F40
07D2EF00
1F41FE00
3E01FE00
7D007D00
BC007C00
F800B800
F800F402
F802F40A
F807F01C
BC1FE074
7FFAD1D0
1BD3D780
0007DE00
000BF800
000BE000
000F8000
001F0000
002E0000
007E0000
00BE0000
00FD0000
01FD0000
00FD0000
00BD0000
003D0000
00040000
ENDCHAR
STARTCHAR r
ENCODING 114
SWIDTH 406 0
DWIDTH 13 0
BBX 19 16 -3 -1
BITMAP
0006400000
001FC00000
002FC00000
007F800000
003FEA0000
002FFF4000
007C1F8000
00F40F8014
01E02F0074
03C03D00E0
0740B80280
0F01F40B00
1D02E02D00
3802F1B400
7001FFD000
0000BE0000
ENDCHAR
STARTCHAR s
ENCODING 115
SWIDTH 351 0
DWIDTH 11 0
BBX 9 15 0 -1
BITMAP
007D00
02FD00
07F800
07F400
07F400
0AB800
2C7D00
742E00
901F40
000F80
090B80
3E0B80
3F0E00
2FFC00
0BE000
ENDCHAR
STARTCHAR t
ENCODING 116
SWIDTH 301 0
DWIDTH 10 0
BBX 16 23 -2 -1
BITMAP
0002E000
0007E000
000BE000
000FD000
556FFF94
FFFFFFFD
5ABF8014
003F4000
007F4000
007F0000
00BD0000
00FC0000
00F80000
01F40000
01F00024
02E000A0
02C001C0
03800740
03801E00
03C07800
02E6E000
01FF8000
00690000
ENDCHAR
STARTCHAR u
ENCODING 117
SWIDTH 468 0
DWIDTH 15 0
BBX 18 13 0 -1
BITMAP
07802D0000
1F407D0000
2F00BD0000
3E00FC0000
7D01F80060
BC02F801C0
B802F00340
F802E00A00
F802E02C00
F80BE0B400
BEAEFBD000
2FF8BF4000
0540140000
ENDCHAR
STARTCHAR v
ENCODING 118
SWIDTH 427 0
DWIDTH 14 0
BBX 17 14 0 -1
BITMAP
0000090000
2E003F0000
7E00BE0000
7D00FD0000
BC01FC0280
BC01F41A00
BC01FFF400
B803E94000
BC0B400000
7C1E000000
7D78000000
3FF0000000
1FD0000000
0600000000
ENDCHAR
STARTCHAR w
ENCODING 119
SWIDTH 646 0
DWIDTH 21 0
BBX 24 14 0 -1
BITMAP
010028005000
1F40BD02F000
2F40FC07E000
3F01F80BE000
3E01F40BD00A
7D02F00BC078
7C02D00BFFD0
BC02C00FA900
B802801F0000
B807C03D0000
B80ED0780000
7D78F5F40000
3FE07FD00000
0A4015000000
ENDCHAR
STARTCHAR x
ENCODING 120
SWIDTH 399 0
DWIDTH 13 0
BBX 16 14 -2 -1
BITMAP
02E00280
02F00BE0
01F42F80
00B8BE00
007EF800
003FE000
002F8000
003F0000
00FF0007
02FF401D
0BC7C0B4
2F43EBD0
7D02FF40
64006400
ENDCHAR
STARTCHAR y
ENCODING 121
SWIDTH 406 0
DWIDTH 13 0
BBX 13 27 -1 -14
BITMAP
00000100
0BC01F40
0BC01F80
0FC01F40
1F802F00
2F403E00
2F007D00
3E00FC00
7D02F800
7C07F400
7C0FF400
7E7EF000
2FF9E000
0A92E000
0003D000
0007C000
0007C000
000B8000
000F4000
001F4000
002F0000
002F0000
003E0000
007D0000
00BD0000
00BC0000
00140000
ENDCHAR
STARTCHAR z
ENCODING 122
SWIDTH 448 0
DWIDTH 14 0
BBX 18 27 -1 -14
BITMAP
0005AA8000
007FFFD000
00BE9BC000
00900B8000
00000F0000
00002E0000
00007C0000
0001F40090
0003E00280
001FEE0B00
003FEF2C00
003E0BE000
00141F8000
0001FF0000
001FAE0000
00BD3D0000
02E07C0000
0B80B80000
1F00F40000
3D02F00000
7803E00000
B40BC00000
F41F800000
F43F000000
FDFD000000
BFF4000000
2F90000000
ENDCHAR
STARTCHAR braceleft
ENCODING 123
SWIDTH 243 0
DWIDTH 8 0
BBX 12 31 -1 -4
BITMAP
000019
0001FD
000BFC
001FE4
002F40
003E00
003D00
003D00
003D00
002D00
002D00
003C00
007800
01F400
0FD000
0F4000
03C000
02D000
02D000
02D000
07C000
0F4000
1E0000
3D0000
7C0000
BC0000
BD0000
7F8000
3FC000
1F8000
024000
ENDCHAR
STARTCHAR bar
ENCODING 124
SWIDTH 253 0
DWIDTH 8 0
BBX 8 25 0 -1
BITMAP
0005
002F
003E
003D
007C
00B8
00F4
00F4
01F0
02E0
02D0
03C0
07C0
0B80
0B40
0F40
1F00
1F00
2E00
3E00
7D00
7D00
BC00
FC00
5000
ENDCHAR
STARTCHAR braceright
ENCODING 125
SWIDTH 243 0
DWIDTH 8 0
BBX 11 31 -3 -4
BITMAP
000100
0007D0
000BF4
0007FC
0000FC
00007C
00007C
0000B4
0001F0
0002D0
0007C0
000B40
000F00
000F00
000B40
0007D0
000BD0
002E40
007C00
00B800
00B400
00F400
00F400
00B400
00B400
00F400
02F000
1BE000
7FD000
BF4000
A40000
ENDCHAR
STARTCHAR asciitilde
ENCODING 126
SWIDTH 329 0
DWIDTH 11 0
BBX 12 4 -1 9
BITMAP
1BE507
BFFFFF
B95BFD
100050
ENDCHAR
STARTCHAR uni00A0
ENCODING 160
SWIDTH 280 0
DWIDTH 9 0
BBX 1 1 0 0
BITMAP
00
ENDCHAR
STARTCHAR exclamdown
ENCODING 161
SWIDTH 249 0
DWIDTH 8 0
BBX 10 25 -1 -1
BITMAP
000140
001FE0
002FD0
001900
000000
000500
002E00
003D00
007D00
00BC00
00F800
00F800
01F400
02F000
03F000
07E000
07D000
0BD000
0FC000
1F8000
2F8000
3F4000
3F0000
7F0000
680000
ENDCHAR
STARTCHAR cent
ENCODING 162
SWIDTH 322 0
DWIDTH 10 0
BBX 11 24 0 -1
BITMAP
0002C0
0003C0
000380
002FE0
00B974
02E078
0B81F8
1F03F8
2E07F4
7C03E0
B80000
F40000
F40000
F00000
F00000
F00000
F40140
B80700
3E6D00
1FE000
074000
0B0000
0E0000
040000
ENDCHAR
STARTCHAR sterling
ENCODING 163
SWIDTH 318 0
DWIDTH 10 0
BBX 14 21 -2 1
BITMAP
00006A00
0003FB80
000B42C0
001E02D0
002C03C0
003C6F80
00783E00
00B40400
00B40000
00F00000
0AF58000
0FFFC000
02E50000
03C00000
07800000
0B400000
0E000000
2D155000
7EFFF000
7FEAA000
10000000
ENDCHAR
STARTCHAR currency
ENCODING 164
SWIDTH 347 0
DWIDTH 11 0
BBX 12 11 0 6
BITMAP
0D0009
0F197D
07FFF4
03D2C0
0741C0
0B0280
0B0740
1F6F40
7FFB80
F442D0
9000D0
ENDCHAR
STARTCHAR yen
ENCODING 165
SWIDTH 326 0
DWIDTH 10 0
BBX 13 19 0 2
BITMAP
0B400780
0B400F00
0B402E00
0B403C00
0780B400
03C1E000
03C7C000
02DF4000
01FD0000
00F40000
00F40000
2FFF4000
2AEA0000
07E40000
BFFD0000
5B940000
0B400000
0F400000
0E000000
ENDCHAR
STARTCHAR brokenbar
ENCODING 166
SWIDTH 253 0
DWIDTH 8 0
BBX 8 25 0 -1
BITMAP
0005
002F
003E
003D
007C
00B8
00F8
00F4
01F0
02E0
02D0
0000
0000
0100
0B40
0F40
1F00
1F00
2E00
3E00
7D00
7D00
BC00
FC00
5000
ENDCHAR
STARTCHAR section
ENCODING 167
SWIDTH 297 0
DWIDTH 10 0
BBX 12 25 -1 -1
BITMAP
0001A4
002E5D
00B80F
01F00F
02E01F
02E029
01F000
007800
001E00
006F80
07E6D0
1F41E0
2E00F0
2D01E0
2E03D0
0F6F40
03F400
00B400
002D00
190F40
B80F40
F40F40
F01E00
79BC00
0A9000
ENDCHAR
STARTCHAR dieresis
ENCODING 168
SWIDTH 567 0
DWIDTH 18 0
BBX 8 3 7 18
BITMAP
BC2F
FC7F
9014
ENDCHAR
STARTCHAR copyright
ENCODING 169
SWIDTH 456 0
DWIDTH 15 0
BBX 16 17 0 7
BITMAP
00005400
001BFF40
00BD02E0
02E01074
0781FD2C
0F079E1D
2D1F1E0E
3C2D190E
7838000E
7874001E
7874042D
7878183C
3C2EA0B4
2D0A41E0
0F400B80
02E9BD00
006B9000
ENDCHAR
STARTCHAR ordfeminine
ENCODING 170
SWIDTH 373 0
DWIDTH 12 0
BBX 15 17 -2 -1
BITMAP
00014000
000BF000
007DF000
00F4B800
02D07800
07C07800
0B40B400
0F40F000
1F01F00C
1F07E034
1FAEB1E0
0FF8BF40
06802900
00000000
2AAFA900
7FFFFC00
A9555400
ENDCHAR
STARTCHAR guillemotleft
ENCODING 171
SWIDTH 346 0
DWIDTH 11 0
BBX 12 14 -1 -1
BITMAP
000405
00782D
01E0B8
07C2E0
0F47C0
3E1F40
B87D00
F87D00
7C2E00
2D1F00
1F0B40
0B43C0
0381D0
014050
ENDCHAR
STARTCHAR logicalnot
ENCODING 172
SWIDTH 512 0
DWIDTH 16 0
BBX 16 8 0 5
BITMAP
1AAAAAA9
BFFFFFFE
EA55556E
0000002D
0000003C
00000078
000000B4
00000090
ENDCHAR
STARTCHAR sfthyphen
ENCODING 173
SWIDTH 353 0
DWIDTH 11 0
BBX 12 3 -1 8
BITMAP
2FFFFE
7FFFFD
550000
ENDCHAR
STARTCHAR registered
ENCODING 174
SWIDTH 456 0
DWIDTH 15 0
BBX 16 17 0 7
BITMAP
00005400
001BFF40
00BD02E0
02E05074
078BAD2C
0F1F4E1D
2D070E0E
3C0A1D0E
781EB40E
781FD01E
781CE02D
7828703C
3C7839B4
2D1029E0
0F400B80
02E9BD00
006B9000
ENDCHAR
STARTCHAR macron
ENCODING 175
SWIDTH 567 0
DWIDTH 18 0
BBX 8 3 7 18
BITMAP
6FFE
BFFE
5554
ENDCHAR
STARTCHAR degree
ENCODING 176
SWIDTH 144 0
DWIDTH 5 0
BBX 5 5 2 17
BITMAP
1400
BB00
D740
FE00
1400
ENDCHAR
STARTCHAR twosuperior
ENCODING 178
SWIDTH 268 0
DWIDTH 9 0
BBX 10 16 0 8
BITMAP
001A40
00BBD0
03D2E0
07C2E0
07C2E0
0103C0
000B80
001E00
007C00
01F400
07D000
1F4000
3D5400
BFFF00
7EAF00
000100
ENDCHAR
STARTCHAR threesuperior
ENCODING 179
SWIDTH 262 0
DWIDTH 8 0
BBX 10 16 0 8
BITMAP
006A40
02FBD0
07D1E0
0B81E0
0B82D0
0147C0
001F40
01BD00
01FF00
000B40
000780
180B40
7C1F00
3E7D00
2FF400
014000
ENDCHAR
STARTCHAR acute
ENCODING 180
SWIDTH 567 0
DWIDTH 18 0
BBX 6 5 8 17
BITMAP
0090
07E0
2FD0
BE00
5000
ENDCHAR
STARTCHAR mu
ENCODING 181
SWIDTH 453 0
DWIDTH 15 0
BBX 19 19 -4 -7
BITMAP
0005005000
003E02E000
007C03E000
00B807E000
00F40BD000
01F00BC000
02F00F8014
03E00F4030
03E00F00A0
07E02F42C0
0BFEF7EB40
0FFF82FD00
0F40005000
1F00000000
2F00000000
3E00000000
7D00000000
B800000000
4000000000
ENDCHAR
STARTCHAR paragraph
ENCODING 182
SWIDTH 411 0
DWIDTH 13 0
BBX 15 25 1 -1
BITMAP
00005050
0001F2D0
01BFFFFC
0BFFFFE4
3FFFD780
7FFFC740
BFFF8B40
FFFF4F00
FFFF4E00
BFFF1D00
7FFE2D00
1FFD2C00
01BD3C00
003C7800
00787400
0078B400
00B4B000
00F0E000
01E1E000
01E1D000
02D2C000
03C38000
07C78000
0B8B0000
09040000
ENDCHAR
STARTCHAR periodcentered
ENCODING 183
SWIDTH 168 0
DWIDTH 5 0
BBX 5 4 0 9
BITMAP
0500
2F80
BF40
6900
ENDCHAR
STARTCHAR cedilla
ENCODING 184
SWIDTH 567 0
DWIDTH 18 0
BBX 6 8 8 -5
BITMAP
1E00
3C00
7E40
6BE0
02E0
07D0
7E00
5000
ENDCHAR
STARTCHAR onesuperior
ENCODING 185
SWIDTH 150 0
DWIDTH 5 0
BBX 5 15 1 9
BITMAP
0140
0BC0
1F80
0B80
0B40
0F00
0E00
1E00
2D00
2C00
3800
7800
B400
F400
F400
ENDCHAR
STARTCHAR ordmasculine
ENCODING 186
SWIDTH 319 0
DWIDTH 10 0
BBX 14 16 -2 -1
BITMAP
006F4000
01FAE000
02E0B010
07D0B460
0BD0B6C0
0FF4BE00
1E7FF400
1E06E000
0E02D000
0F078000
0BFF0000
02A80000
00000000
2AFE9000
BFFFD000
A9554000
ENDCHAR
STARTCHAR guillemotright
ENCODING 187
SWIDTH 346 0
DWIDTH 11 0
BBX 12 14 -2 -1
BITMAP
050100
0B0740
0783C0
03C1E0
02E0F4
00F4BC
00BC3E
00B87D
02F0F8
07C2E0
1F4B80
3D1E00
B43800
405000
ENDCHAR
STARTCHAR onequarter
ENCODING 188
SWIDTH 579 0
DWIDTH 19 0
BBX 19 25 -1 -1
BITMAP
0014000014
007C0001F0
01FC0003D0
00B8000B80
00B4001F00
00B0007D00
00F000F400
01E002E000
01D007C000
02D00F4010
03C02E02F0
07807C0BF0
0B80F41FE0
0B42E07DD0
0B87C0F6D0
000F43D2C0
002E0F47C0
007C1FFFE0
00F40FAFE0
02E0000B40
0BC0000F00
1F40001F00
3F00002F00
BD00002F00
5000001400
ENDCHAR
STARTCHAR onehalf
ENCODING 189
SWIDTH 603 0
DWIDTH 19 0
BBX 20 25 -1 -1
BITMAP
0014000014
007D0001F4
00FC0003E0
0078000B80
0078001F00
00B4003D00
00F000B800
00E001F000
01E003D000
02D00B4050
02C01E0BFC
03C07C2D2D
0780B4782E
0B82E0B83D
0B87C0247C
000F4000B8
002E0001E0
007C0003D0
00F4001F40
02F0007D00
07D001F400
0F8007D000
2F000BFFE0
7D0007FFE0
5400014050
ENDCHAR
STARTCHAR threequarters
ENCODING 190
SWIDTH 669 0
DWIDTH 21 0
BBX 21 25 0 -1
BITMAP
006A40000140
02FBD0001F00
07D1E0007D00
0B81E000F800
0B82D002E000
0147C007C000
001F400F4000
01BD002E0000
01FF007C0000
000B40F40100
000782D02F00
180B4780BF00
7C1F0F01FE00
3E7D2D07DD00
2FF4781F2C00
0141F07D3C00
0002D0F47800
000B81FFFE00
001F40FAFD00
003E0000F400
00BC0001F000
01F40001F000
03E00002E000
0BD00002E000
050000014000
ENDCHAR
STARTCHAR questiondown
ENCODING 191
SWIDTH 413 0
DWIDTH 13 0
BBX 16 25 -2 -1
BITMAP
00000068
000001FE
000002FD
00000054
00000000
000000B0
000003E0
000007D0
00000BD0
00000FC0
00000F80
0001BF40
001FF900
00BE4000
02F40000
0BD00000
1F800000
3F000000
7E000A40
7D000BD0
BC000BD0
7D001FC0
3F407F40
1FFFF900
02BE9000
ENDCHAR
STARTCHAR Agrave
ENCODING 192
SWIDTH 552 0
DWIDTH 18 0
BBX 20 38 -3 -8
BITMAP
0000000A40
0000001FD0
00000006F8
000000006D
0000000004
0000000000
0000000150
0000001FF8
000000BDBC
000002E07C
000007C078
00001F4078
00002E00B4
00007D00F4
0000F800F4
0001F401F0
0002F002F0
0003E002E0
0007D003E0
000BC007D0
000F8007D0
002F400BC0
003F554BC0
007FFFFFE4
1BFFFFFFF0
BEFD006FD0
01FC002F40
02F8002F00
03F4003F00
07F0003F00
0BE0003E00
0FE0007E00
2FD0007E00
3F80007F00
BF40007F00
A400003F80
0000003F80
0000001400
ENDCHAR
STARTCHAR Aacute
ENCODING 193
SWIDTH 552 0
DWIDTH 18 0
BBX 20 38 -3 -8
BITMAP
0000000018
00000000BD
00000007F8
0000000F90
0000000500
0000000000
0000000150
0000001FF8
000000BDBC
000002E07C
000007C078
00001F4078
00002E00B4
00007D00F4
0000F800F4
0001F401F0
0002F002F0
0003E002E0
0007D003E0
000BC007D0
000F8007D0
002F400BC0
003F554BC0
007FFFFFE4
1BFFFFFFF0
BEFD006FD0
01FC002F40
02F8002F00
03F4003F00
07F0003F00
0BE0003E00
0FE0007E00
2FD0007E00
3F80007F00
BF40007F00
A400003F80
0000003F80
0000001400
ENDCHAR
STARTCHAR Acircumflex
ENCODING 194
SWIDTH 552 0
DWIDTH 18 0
BBX 21 37 -3 -8
BITMAP
00000000B800
00000007FD00
0000001F5F00
000000680680
000000000000
000000015000
0000001FF800
000000BDBC00
000002E07C00
000007C07800
00001F407800
00002E00B400
00007D00F400
0000F800F400
0001F401F000
0002F002F000
0003E002E000
0007D003E000
000BC007D000
000F8007D000
002F400BC000
003F554BC000
007FFFFFE400
1BFFFFFFF000
BEFD006FD000
01FC002F4000
02F8002F0000
03F4003F0000
07F0003F0000
0BE0003E0000
0FE0007E0000
2FD0007E0000
3F80007F0000
BF40007F0000
A400003F8000
0000003F8000
000000140000
ENDCHAR
STARTCHAR Atilde
ENCODING 195
SWIDTH 552 0
DWIDTH 18 0
BBX 22 36 -3 -8
BITMAP
0000006FE5B0
000000BEFFE0
000000501540
000000000000
000000015000
0000001FF800
000000BDBC00
000002E07C00
000007C07800
00001F407800
00002E00B400
00007D00F400
0000F800F400
0001F401F000
0002F002F000
0003E002E000
0007D003E000
000BC007D000
000F8007D000
002F400BC000
003F554BC000
007FFFFFE400
1BFFFFFFF000
BEFD006FD000
01FC002F4000
02F8002F0000
03F4003F0000
07F0003F0000
0BE0003E0000
0FE0007E0000
2FD0007E0000
3F80007F0000
BF40007F0000
A400003F8000
0000003F8000
000000140000
ENDCHAR
STARTCHAR Adieresis
ENCODING 196
SWIDTH 552 0
DWIDTH 18 0
BBX 22 36 -3 -8
BITMAP
0000000B86E0
0000002F4BE0
000000190540
000000000000
000000015000
0000001FF800
000000BDBC00
000002E07C00
000007C07800
00001F407800
00002E00B400
00007D00F400
0000F800F400
0001F401F000
0002F002F000
0003E002E000
0007D003E000
000BC007D000
000F8007D000
002F400BC000
003F554BC000
007FFFFFE400
1BFFFFFFF000
BEFD006FD000
01FC002F4000
02F8002F0000
03F4003F0000
07F0003F0000
0BE0003E0000
0FE0007E0000
2FD0007E0000
3F80007F0000
BF40007F0000
A400003F8000
0000003F8000
000000140000
ENDCHAR
STARTCHAR Aring
ENCODING 197
SWIDTH 552 0
DWIDTH 18 0
BBX 19 35 -3 -8
BITMAP
00000001F4
0000000768
0000000768
00000003F0
0000001FF8
000000BDBC
000002E07C
000007C078
00001F4078
00002E00B4
00007D00F4
0000F800F4
0001F401F0
0002F002F0
0003E002E0
0007D003E0
000BC007D0
000F8007D0
002F400BC0
003F554BC0
007FFFFFE4
1BFFFFFFF0
BEFD006FD0
01FC002F40
02F8002F00
03F4003F00
07F0003F00
0BE0003E00
0FE0007E00
2FD0007E00
3F80007F00
BF40007F00
A400003F80
0000003F80
0000001400
ENDCHAR
STARTCHAR AE
ENCODING 198
SWIDTH 869 0
DWIDTH 28 0
BBX 32 32 -3 -8
BITMAP
0000000150005940
0000001FF80BFFE0
000000BDBC7F80B8
000002E07EF8007C
000007C07FE0007D
00001F407FC0007D
00002E00BF8000FC
00007D00FF4002F8
0000F800FF0007F0
0001F401FF000BD0
0002F002FF000000
0003E002FF400000
0007D003FF800000
000BC007DFD00000
000F8007D2FA9000
002F400BC7FFD000
003F554BFF564000
007FFFFFF8000000
1BFFFFFFE0000000
BEFD006FD0000000
01FC002F80000000
02F8002F80000180
03F4003F40000240
07F0003F80000700
0BE0003F80001E00
0FE0007FD0007C00
2FD0007FF401F400
3F80007FFEABD000
BF40007FFFFF4000
A400003F9AA40000
0000003F80000000
0000001400000000
ENDCHAR
STARTCHAR Ccedilla
ENCODING 199
SWIDTH 548 0
DWIDTH 18 0
BBX 18 37 0 -13
BITMAP
000001A400
00002FFF40
0001FD0BC0
000BE007D0
001FC007E0
007F4007E0
00BD000BE0
01FC000FE0
03F4001FD0
07F0007FC0
0FE0007F40
1FD0001900
2FC0000000
3F80000000
3F40000000
7F00000000
BF00000000
BE00000000
FE00000000
FE00000000
FD00000000
FD00000000
FD00001000
BE00003400
7E0000A000
3F4002D000
2F801F4000
0BFABE0000
02FFF40000
007E400000
0078000000
00B9000000
00AFC00000
0003D00000
0007800000
00BE000000
0050000000
ENDCHAR
STARTCHAR Egrave
ENCODING 200
SWIDTH 523 0
DWIDTH 17 0
BBX 19 36 -1 -6
BITMAP
0000029000
000003F400
000001BE00
0000001B40
0000000100
0000000000
0000016500
00002FFF80
0001FD02E0
000BE001F0
002F8001F4
007F0002F0
00FE0003F0
01FC000BE0
02FC002FC0
02FC007F40
02FC000000
01FC000000
00BE000000
003F400000
000BEA0000
001FFF4000
01FD590000
07E0000000
1F80000000
3F00000000
7E00000000
BD00000600
FD00000D00
FE00002C00
FE00007800
BF4001F000
3FD007D000
1FFABF4000
07FFFD0000
006A900000
ENDCHAR
STARTCHAR Eacute
ENCODING 201
SWIDTH 523 0
DWIDTH 17 0
BBX 19 36 -1 -6
BITMAP
0000000240
0000000BC0
0000007F40
000001F800
0000004000
0000000000
0000016500
00002FFF80
0001FD02E0
000BE001F0
002F8001F4
007F0002F0
00FE0003F0
01FC000BE0
02FC002FC0
02FC007F40
02FC000000
01FC000000
00BE000000
003F400000
000BEA0000
001FFF4000
01FD590000
07E0000000
1F80000000
3F00000000
7E00000000
BD00000600
FD00000D00
FE00002C00
FE00007800
BF4001F000
3FD007D000
1FFABF4000
07FFFD0000
006A900000
ENDCHAR
STARTCHAR Ecircumflex
ENCODING 202
SWIDTH 523 0
DWIDTH 17 0
BBX 19 35 -1 -6
BITMAP
0000001F80
000000BFC0
000002E2E0
00000640A4
0000000000
0000016500
00002FFF80
0001FD02E0
000BE001F0
002F8001F4
007F0002F0
00FE0003F0
01FC000BE0
02FC002FC0
02FC007F40
02FC000000
01FC000000
00BE000000
003F400000
000BEA0000
001FFF4000
01FD590000
07E0000000
1F80000000
3F00000000
7E00000000
BD00000600
FD00000D00
FE00002C00
FE00007800
BF4001F000
3FD007D000
1FFABF4000
07FFFD0000
006A900000
ENDCHAR
STARTCHAR Edieresis
ENCODING 203
SWIDTH 523 0
DWIDTH 17 0
BBX 19 34 -1 -6
BITMAP
000002E0B8
00000BE2F8
0000064150
0000000000
0000016500
00002FFF80
0001FD02E0
000BE001F0
002F8001F4
007F0002F0
00FE0003F0
01FC000BE0
02FC002FC0
02FC007F40
02FC000000
01FC000000
00BE000000
003F400000
000BEA0000
001FFF4000
01FD590000
07E0000000
1F80000000
3F00000000
7E00000000
BD00000600
FD00000D00
FE00002C00
FE00007800
BF4001F000
3FD007D000
1FFABF4000
07FFFD0000
006A900000
ENDCHAR
STARTCHAR Igrave
ENCODING 204
SWIDTH 537 0
DWIDTH 17 0
BBX 20 36 -3 -6
BITMAP
0000000A00
0000001FD0
00000007F4
000000007C
0000000004
0000000000
0000000150
0000001FF4
000000BEB8
000002F8B8
000007F0B8
00000BD0F8
00001FC0F4
00001F81F4
00002F42F4
00002F42F0
00002F03F0
00002F07E0
00001F0BD0
00000F0BD0
00000B4FC0
0000071F80
0000002F40
000016BFA9
001BFFFFE9
01FFE5BD00
0BF900BC00
2FD000F800
3F4001F400
7F0002E000
7F0003D000
3F400B8000
1FC01F4000
0BF43D0000
02FFF40000
002A900000
ENDCHAR
STARTCHAR Iacute
ENCODING 205
SWIDTH 537 0
DWIDTH 17 0
BBX 20 36 -3 -6
BITMAP
0000000009
000000006F
00000001FD
0000000BE0
0000000100
0000000000
0000000150
0000001FF4
000000BEB8
000002F8B8
000007F0B8
00000BD0F8
00001FC0F4
00001F81F4
00002F42F4
00002F42F0
00002F03F0
00002F07E0
00001F0BD0
00000F0BD0
00000B4FC0
0000071F80
0000002F40
000016BFA9
001BFFFFE9
01FFE5BD00
0BF900BC00
2FD000F800
3F4001F400
7F0002E000
7F0003D000
3F400B8000
1FC01F4000
0BF43D0000
02FFF40000
002A900000
ENDCHAR
STARTCHAR Icircumflex
ENCODING 206
SWIDTH 537 0
DWIDTH 17 0
BBX 22 35 -3 -6
BITMAP
000000002E00
00000001FF40
00000007C7C0
0000001A01A0
000000000000
000000015000
0000001FF400
000000BEB800
000002F8B800
000007F0B800
00000BD0F800
00001FC0F400
00001F81F400
00002F42F400
00002F42F000
00002F03F000
00002F07E000
00001F0BD000
00000F0BD000
00000B4FC000
0000071F8000
0000002F4000
000016BFA900
001BFFFFE900
01FFE5BD0000
0BF900BC0000
2FD000F80000
3F4001F40000
7F0002E00000
7F0003D00000
3F400B800000
1FC01F400000
0BF43D000000
02FFF4000000
002A90000000
ENDCHAR
STARTCHAR Idieresis
ENCODING 207
SWIDTH 537 0
DWIDTH 17 0
BBX 22 34 -3 -6
BITMAP
0000000B86E0
0000002F4BE0
000000190540
000000000000
000000015000
0000001FF400
000000BEB800
000002F8B800
000007F0B800
00000BD0F800
00001FC0F400
00001F81F400
00002F42F400
00002F42F000
00002F03F000
00002F07E000
00001F0BD000
00000F0BD000
00000B4FC000
0000071F8000
0000002F4000
000016BFA900
001BFFFFE900
01FFE5BD0000
0BF900BC0000
2FD000F80000
3F4001F40000
7F0002E00000
7F0003D00000
3F400B800000
1FC01F400000
0BF43D000000
02FFF4000000
002A90000000
ENDCHAR
STARTCHAR Eth
ENCODING 208
SWIDTH 632 0
DWIDTH 20 0
BBX 20 30 -1 -6
BITMAP
0000594000
000BFFF800
007FFFFF40
00BE401FD0
00740003F0
00019001F8
000BD000FC
000FD000BE
000FC0007E
001FC0007F
001F80007F
002F40007F
002F40007F
007F40007F
3FFFFD00BF
BFFFFC00BE
54BD0000FD
00BC0001FC
00F80002F8
01F80003F4
02F4000BE0
02F0000FD0
03E0002F80
07D0007F00
0BC001FC00
0F8007F400
2F802FD000
3F95FE0000
1FFFF40000
01AA400000
ENDCHAR
STARTCHAR Ntilde
ENCODING 209
SWIDTH 541 0
DWIDTH 17 0
BBX 23 33 -2 -6
BITMAP
00000BF96C00
00002FBFF800
000014055000
000000000680
0006D0002FE0
000BE0007FF0
000FE000FC74
001FE001F470
002FF002F0F0
002FF003E1E0
003EF007D3C0
007DF007DF40
0078F06BFD00
00B8F02FE000
00F4F00F8000
00F0B40F4000
01F0B41F4000
02E0B41F0000
03E0B42F0000
03D0B42E0000
07C0B43E0000
0BC0B43D0000
0F80B87D0000
0F8078BC0000
1F8078BC0000
2F407CF80000
2F403DF40000
3F403EF00000
3F402FF00000
7F402FE00000
7F401FD00000
3F800FC00000
190006400000
ENDCHAR
STARTCHAR Ograve
ENCODING 210
SWIDTH 567 0
DWIDTH 18 0
BBX 17 36 0 -6
BITMAP
00000A4000
00000FD000
000006F800
0000006D00
0000000400
0000000000
00002E5000
0001FFF800
0007FEBD00
001FE43E00
003F402F00
00BD002F00
00FC001F40
02F4001F40
03F0001F40
07D0001F80
0BC0001F80
1F80001F40
1F80001F40
2F40001F40
3F00002F40
3F00002F00
7E00003F00
7E00007E00
BD00007D00
BD0000BC00
BD0000F800
BD0001F400
BD0002F000
BD0007E000
7D000BC000
3E001F4000
2F007E0000
1F41F80000
0BEFE00000
01FE400000
ENDCHAR
STARTCHAR Oacute
ENCODING 211
SWIDTH 567 0
DWIDTH 18 0
BBX 17 36 0 -6
BITMAP
0000001800
000000BD00
000006F800
00000F9000
0000050000
0000000000
00002E5000
0001FFF800
0007FEBD00
001FE43E00
003F402F00
00BD002F00
00FC001F40
02F4001F40
03F0001F40
07D0001F80
0BC0001F80
1F80001F40
1F80001F40
2F40001F40
3F00002F40
3F00002F00
7E00003F00
7E00007E00
BD00007D00
BD0000BC00
BD0000F800
BD0001F400
BD0002F000
BD0007E000
7D000BC000
3E001F4000
2F007E0000
1F41F80000
0BEFE00000
01FE400000
ENDCHAR
STARTCHAR Ocircumflex
ENCODING 212
SWIDTH 567 0
DWIDTH 18 0
BBX 17 35 0 -6
BITMAP
000001F800
000007FD00
00002E2E00
0000640A40
0000000000
00002E5000
0001FFF800
0007FEBD00
001FE43E00
003F402F00
00BD002F00
00FC001F40
02F4001F40
03F0001F40
07D0001F80
0BC0001F80
1F80001F40
1F80001F40
2F40001F40
3F00002F40
3F00002F00
7E00003F00
7E00007E00
BD00007D00
BD0000BC00
BD0000F800
BD0001F400
BD0002F000
BD0007E000
7D000BC000
3E001F4000
2F007E0000
1F41F80000
0BEFE00000
01FE400000
ENDCHAR
STARTCHAR Otilde
ENCODING 213
SWIDTH 567 0
DWIDTH 18 0
BBX 17 34 0 -6
BITMAP
0000BF96C0
0002FBFF80
0001405500
0000000000
00002E5000
0001FFF800
0007FEBD00
001FE43E00
003F402F00
00BD002F00
00FC001F40
02F4001F40
03F0001F40
07D0001F80
0BC0001F80
1F80001F40
1F80001F40
2F40001F40
3F00002F40
3F00002F00
7E00003F00
7E00007E00
BD00007D00
BD0000BC00
BD0000F800
BD0001F400
BD0002F000
BD0007E000
7D000BC000
3E001F4000
2F007E0000
1F41F80000
0BEFE00000
01FE400000
ENDCHAR
STARTCHAR Odieresis
ENCODING 214
SWIDTH 567 0
DWIDTH 18 0
BBX 17 34 0 -6
BITMAP
00002E0B80
0000BE2F80
0000641500
0000000000
00002E5000
0001FFF800
0007FEBD00
001FE43E00
003F402F00
00BD002F00
00FC001F40
02F4001F40
03F0001F40
07D0001F80
0BC0001F80
1F80001F40
1F80001F40
2F40001F40
3F00002F40
3F00002F00
7E00003F00
7E00007E00
BD00007D00
BD0000BC00
BD0000F800
BD0001F400
BD0002F000
BD0007E000
7D000BC000
3E001F4000
2F007E0000
1F41F80000
0BEFE00000
01FE400000
ENDCHAR
STARTCHAR multiply
ENCODING 215
SWIDTH 281 0
DWIDTH 9 0
BBX 11 12 -1 5
BITMAP
014010
0BC0BC
03D1F4
02E7D0
01FF40
00FD00
00F800
02F800
0BBC00
2E3D00
781F00
600A00
ENDCHAR
STARTCHAR Oslash
ENCODING 216
SWIDTH 597 0
DWIDTH 19 0
BBX 20 32 -1 -7
BITMAP
0000000001
000006947E
00002FFFFD
0000FF9FF8
0002FA0BF0
0007E00BD0
000FC00FE0
002F402FE0
007E007FE0
00BD00BFF0
00FC01F7F0
01F403F3F0
02F407D3F0
03F00F83F0
07E02F03E0
0BD03E07E0
0BD0BC07E0
0FC1F40BD0
0FC2F00BC0
0FC7D00FC0
1F8FC01F80
1F9F402F40
1FBF003F00
1FFD007D00
0FF800FC00
0FF401F400
0BF003E000
0BD00BC000
1FF02F4000
3FFEFD0000
7F6FE00000
6400000000
ENDCHAR
STARTCHAR Ugrave
ENCODING 217
SWIDTH 574 0
DWIDTH 18 0
BBX 20 35 0 -6
BITMAP
00000A4000
00000FD000
000006F800
0000006D00
0000000400
0000000000
000AC000BD
003F8001FC
007F4002F8
00BF0003F4
00FE0007F0
00FD0007E0
01FC000BE0
02F8000FD0
03F4001FC0
07F0001F80
0BE0002F40
0BD0003F00
0FC0007E00
1F80007D00
1F4000BD00
2F4000FC00
2F0000F800
3E0001F800
7E0002F400
7D0003F400
7D0007F000
BD000BF000
BD000FF000
BD002FE000
BD007FE000
7E01F6E000
3F9BE2F000
1FFF41F400
06A8005000
ENDCHAR
STARTCHAR Uacute
ENCODING 218
SWIDTH 574 0
DWIDTH 18 0
BBX 20 35 0 -6
BITMAP
0000000240
0000001BC0
0000007F40
000002F800
0000004000
0000000000
000AC000BD
003F8001FC
007F4002F8
00BF0003F4
00FE0007F0
00FD0007E0
01FC000BE0
02F8000FD0
03F4001FC0
07F0001F80
0BE0002F40
0BD0003F00
0FC0007E00
1F80007D00
1F4000BD00
2F4000FC00
2F0000F800
3E0001F800
7E0002F400
7D0003F400
7D0007F000
BD000BF000
BD000FF000
BD002FE000
BD007FE000
7E01F6E000
3F9BE2F000
1FFF41F400
06A8005000
ENDCHAR
STARTCHAR Ucircumflex
ENCODING 219
SWIDTH 574 0
DWIDTH 18 0
BBX 20 35 0 -6
BITMAP
0000007E00
000002FF00
00000B8B80
0000190290
0000000000
0000000000
000AC000BD
003F8001FC
007F4002F8
00BF0003F4
00FE0007F0
00FD0007E0
01FC000BE0
02F8000FD0
03F4001FC0
07F0001F80
0BE0002F40
0BD0003F00
0FC0007E00
1F80007D00
1F4000BD00
2F4000FC00
2F0000F800
3E0001F800
7E0002F400
7D0003F400
7D0007F000
BD000BF000
BD000FF000
BD002FE000
BD007FE000
7E01F6E000
3F9BE2F000
1FFF41F400
06A8005000
ENDCHAR
STARTCHAR Udieresis
ENCODING 220
SWIDTH 574 0
DWIDTH 18 0
BBX 20 34 0 -6
BITMAP
00001F47D0
00003F4FD0
0000150500
0000000000
0000000000
000AC000BD
003F8001FC
007F4002F8
00BF0003F4
00FE0007F0
00FD0007E0
01FC000BE0
02F8000FD0
03F4001FC0
07F0001F80
0BE0002F40
0BD0003F00
0FC0007E00
1F80007D00
1F4000BD00
2F4000FC00
2F0000F800
3E0001F800
7E0002F400
7D0003F400
7D0007F000
BD000BF000
BD000FF000
BD002FE000
BD007FE000
7E01F6E000
3F9BE2F000
1FFF41F400
06A8005000
ENDCHAR
STARTCHAR Yacute
ENCODING 221
SWIDTH 532 0
DWIDTH 17 0
BBX 18 35 0 -6
BITMAP
0000000900
0000007E00
000002FD00
00000BD000
0000050000
0005000050
007F0003F0
00BE0007E0
00FD000BE0
01FC000FD0
02F8000FC0
03F4001F80
03F0002F40
07E0002F00
0BD0003E00
0FC0007E00
0F8000BD00
1F4000FC00
1F4001F800
2F0002F800
2F0007F400
3E000FF000
3F002EE000
2F40B9E000
2FEBE2D000
0BFF83C000
01A4078000
00000F4000
00001F0000
00003E0000
1C00BC0000
7F42F40000
BFFFE00000
7FFF400000
0AA4000000
ENDCHAR
STARTCHAR Thorn
ENCODING 222
SWIDTH 569 0
DWIDTH 18 0
BBX 19 29 -1 -6
BITMAP
0007D00000
000FC00000
001FC00000
001F800000
002F400000
003FABE800
007FFAFF40
01FE401FC0
0BFD000BE0
0FFC0003F0
0AF80003F4
01F40003F4
02F40003F0
02F00003F0
03E00007E0
07D0000BD0
0BD0001F80
0BC0003F40
0F8000FD00
1F8007F400
1F402FD000
2F46FE0000
3FFFE00000
7F54000000
7E00000000
BE00000000
FD00000000
FD00000000
A400000000
ENDCHAR
STARTCHAR germandbls
ENCODING 223
SWIDTH 495 0
DWIDTH 16 0
BBX 19 36 -4 -15
BITMAP
000006FD00
00001FEF40
00007E07C0
0000BC0BC0
0001F40F80
0002F01F40
0003E02F00
0007D07D00
000BC0B800
000F80F000
000F40F000
001F00B800
002E003D00
003D002F00
007C000F80
28B8000BD0
1BF40003F0
01F80281F4
01FE0BC1F0
02EB8BE2D0
03D3D7FF40
03C1F1F900
0780B40000
0B80780000
0F407C0000
1F007C0000
1F00780000
2E00B80000
3D01F40000
3C02E00000
7C07D00000
B81F800000
B87F000000
BFFD000000
BFF4000000
3F40000000
ENDCHAR
STARTCHAR agrave
ENCODING 224
SWIDTH 435 0
DWIDTH 14 0
BBX 18 20 -1 -1
BITMAP
0019000000
003F800000
000BF00000
0000B80000
0000100000
0000000000
000BE00000
007FF40000
01F4F40000
03E17C0000
0BC07C0000
1F40780050
2F00B801D0
3E00F40380
7D01F00A00
7D07F02C00
7E1EF0B400
7FFCF6D000
2FE0BF4000
0500140000
ENDCHAR
STARTCHAR aacute
ENCODING 225
SWIDTH 435 0
DWIDTH 14 0
BBX 18 20 -1 -1
BITMAP
0000180000
0000BD0000
0007F80000
001F900000
0004000000
0000000000
000BE00000
007FF40000
01F4F40000
03E17C0000
0BC07C0000
1F40780050
2F00B801D0
3E00F40380
7D01F00A00
7D07F02C00
7E1EF0B400
7FFCF6D000
2FE0BF4000
0500140000
ENDCHAR
STARTCHAR acircumflex
ENCODING 226
SWIDTH 435 0
DWIDTH 14 0
BBX 18 20 -1 -1
BITMAP
0001F40000
000BFC0000
002E2E0000
00A40A4000
0000000000
0000000000
000BE00000
007FF40000
01F4F40000
03E17C0000
0BC07C0000
1F40780050
2F00B801D0
3E00F40380
7D01F00A00
7D07F02C00
7E1EF0B400
7FFCF6D000
2FE0BF4000
0500140000
ENDCHAR
STARTCHAR atilde
ENCODING 227
SWIDTH 435 0
DWIDTH 14 0
BBX 18 19 -1 -1
BITMAP
00BF95D000
02FBFFC000
0080150000
0000000000
0000000000
000BE00000
007FF40000
01F4F40000
03E17C0000
0BC07C0000
1F40780050
2F00B801D0
3E00F40380
7D01F00A00
7D07F02C00
7E1EF0B400
7FFCF6D000
2FE0BF4000
0500140000
ENDCHAR
STARTCHAR adieresis
ENCODING 228
SWIDTH 435 0
DWIDTH 14 0
BBX 18 19 -1 -1
BITMAP
001F47D000
003F0FD000
0014050000
0000000000
0000000000
000BE00000
007FF40000
01F4F40000
03E17C0000
0BC07C0000
1F40780050
2F00B801D0
3E00F40380
7D01F00A00
7D07F02C00
7E1EF0B400
7FFCF6D000
2FE0BF4000
0500140000
ENDCHAR
STARTCHAR aring
ENCODING 229
SWIDTH 435 0
DWIDTH 14 0
BBX 18 20 -1 -1
BITMAP
0001500000
0007B00000
000D340000
000BE00000
0001400000
0000000000
000BE00000
007FF40000
01F4F40000
03E17C0000
0BC07C0000
1F40780050
2F00B801D0
3E00F40380
7D01F00A00
7D07F02C00
7E1EF0B400
7FFCF6D000
2FE0BF4000
0500140000
ENDCHAR
STARTCHAR ae
ENCODING 230
SWIDTH 594 0
DWIDTH 19 0
BBX 23 14 -1 -1
BITMAP
000BE06F8000
007FF1FBD000
01F4FB83D000
03E1BF07C000
0BC0BE0F4000
1F40BD3D0014
2F00FDF40074
3E00FF8001E0
7D01FD000780
7D03F8001E00
7E1FFC007800
7FFD7E56E000
2FE02FFE4000
054006A40000
ENDCHAR
STARTCHAR ccedilla
ENCODING 231
SWIDTH 363 0
DWIDTH 12 0
BBX 15 21 -1 -8
BITMAP
006FD000
01FDF000
07E1F000
0BC3E000
1F43D000
2E010008
3D000028
7D000070
7C0001D0
7D000740
3E002D00
2F91F400
0BFF9000
02F90000
02D00000
03E80000
02BF0000
001F0000
002D0000
06E40000
01000000
ENDCHAR
STARTCHAR egrave
ENCODING 232
SWIDTH 372 0
DWIDTH 12 0
BBX 14 20 0 -1
BITMAP
00A40000
01FD0000
006F8000
0006D000
00004000
00000000
006F8000
02FFC000
0B87C000
1F078000
3D0F0000
7C7D0010
B9F40070
FF8001D0
FD000780
F8001E00
FC00B800
7E57D000
2FFE4000
06A40000
ENDCHAR
STARTCHAR eacute
ENCODING 233
SWIDTH 372 0
DWIDTH 12 0
BBX 14 20 0 -1
BITMAP
00009000
0006F000
001FD000
00BE0000
00100000
00000000
006F8000
02FFC000
0B87C000
1F078000
3D0F0000
7C7D0010
B9F40070
FF8001D0
FD000780
F8001E00
FC00B800
7E57D000
2FFE4000
06A40000
ENDCHAR
STARTCHAR ecircumflex
ENCODING 234
SWIDTH 372 0
DWIDTH 12 0
BBX 14 20 0 -1
BITMAP
000BD000
002FE000
01F4F400
02906800
00000000
00000000
006F8000
02FFC000
0B87C000
1F078000
3D0F0000
7C7D0010
B9F40070
FF8001D0
FD000780
F8001E00
FC00B800
7E57D000
2FFE4000
06A40000
ENDCHAR
STARTCHAR edieresis
ENCODING 235
SWIDTH 372 0
DWIDTH 12 0
BBX 14 19 0 -1
BITMAP
01F47D00
03F4FD00
01405000
00000000
00000000
006F8000
02FFC000
0B87C000
1F078000
3D0F0000
7C7D0010
B9F40070
FF8001D0
FD000780
F8001E00
FC00B800
7E57D000
2FFE4000
06A40000
ENDCHAR
STARTCHAR igrave
ENCODING 236
SWIDTH 274 0
DWIDTH 9 0
BBX 11 20 0 -1
BITMAP
280000
7F4000
1FD000
01F000
001000
000000
004000
0BC000
0FC000
1F8000
2F0000
3E0008
3E002C
7D0074
7C01D0
780780
782E00
3EF800
1FD000
010000
ENDCHAR
STARTCHAR iacute
ENCODING 237
SWIDTH 274 0
DWIDTH 9 0
BBX 11 20 0 -1
BITMAP
000180
000BD0
007F80
00F900
005000
000000
004000
0BC000
0FC000
1F8000
2F0000
3E0008
3E002C
7D0074
7C01D0
780780
782E00
3EF800
1FD000
010000
ENDCHAR
STARTCHAR icircumflex
ENCODING 238
SWIDTH 274 0
DWIDTH 9 0
BBX 11 20 0 -1
BITMAP
00BC00
07FE00
1F5F00
680680
000000
000000
004000
0BC000
0FC000
1F8000
2F0000
3E0008
3E002C
7D0074
7C01D0
780780
782E00
3EF800
1FD000
010000
ENDCHAR
STARTCHAR idieresis
ENCODING 239
SWIDTH 274 0
DWIDTH 9 0
BBX 11 19 0 -1
BITMAP
2F0B80
7F1FC0
240500
000000
000000
004000
0BC000
0FC000
1F8000
2F0000
3E0008
3E002C
7D0074
7C01D0
780780
782E00
3EF800
1FD000
010000
ENDCHAR
STARTCHAR eth
ENCODING 240
SWIDTH 393 0
DWIDTH 13 0
BBX 16 22 0 -1
BITMAP
00030000
00038000
0002C000
0001EFD0
006FFF80
00FEF000
0190F000
0000F000
00A4B400
07FFF400
0F87F001
2F02F00A
7F02F078
BF02E6E0
FB92FF40
F2FFF800
F0AFC000
F00B8000
F41F4000
B97E0000
7FF80000
06500000
ENDCHAR
STARTCHAR ntilde
ENCODING 241
SWIDTH 461 0
DWIDTH 15 0
BBX 18 18 -1 -1
BITMAP
007FE59000
01FAFFD000
0090150000
0000000000
0000140000
02F1FE0000
03EBFF0000
07FD2F0000
07F42F0000
0BE02E0020
0F803E0060
0F407D01D0
1F00BC0380
2F00F80E00
3E00F82C00
7D00F9F000
7C00FF8000
5000290000
ENDCHAR
STARTCHAR ograve
ENCODING 242
SWIDTH 393 0
DWIDTH 13 0
BBX 16 20 0 -1
BITMAP
00A40000
01FD0000
006F8000
0006D000
00004000
00000000
00A40000
07FF4000
0F87C001
2F02D00A
7F02E078
BF02E2E0
FB92FF40
F2FFF400
F0AFC000
F00B8000
F41F4000
B97E0000
7FF80000
06500000
ENDCHAR
STARTCHAR oacute
ENCODING 243
SWIDTH 393 0
DWIDTH 13 0
BBX 16 20 0 -1
BITMAP
00009000
0006F000
001FD000
00BE0000
00100000
00000000
00A40000
07FF4000
0F87C001
2F02D00A
7F02E078
BF02E2E0
FB92FF40
F2FFF400
F0AFC000
F00B8000
F41F4000
B97E0000
7FF80000
06500000
ENDCHAR
STARTCHAR ocircumflex
ENCODING 244
SWIDTH 393 0
DWIDTH 13 0
BBX 16 20 0 -1
BITMAP
002F4000
00BF8000
07D3D000
0A41A000
00000000
00000000
00A40000
07FF4000
0F87C001
2F02D00A
7F02E078
BF02E2E0
FB92FF40
F2FFF400
F0AFC000
F00B8000
F41F4000
B97E0000
7FF80000
06500000
ENDCHAR
STARTCHAR otilde
ENCODING 245
SWIDTH 393 0
DWIDTH 13 0
BBX 16 18 0 -1
BITMAP
0BF95D00
1FAFFC00
08015000
00000000
00A40000
07FF4000
0F87C001
2F02D00A
7F02E078
BF02E2E0
FB92FF40
F2FFF400
F0AFC000
F00B8000
F41F4000
B97E0000
7FF80000
06500000
ENDCHAR
STARTCHAR odieresis
ENCODING 246
SWIDTH 393 0
DWIDTH 13 0
BBX 16 18 0 -1
BITMAP
02F0B800
07E1F800
02405000
00000000
00A40000
07FF4000
0F87C001
2F02D00A
7F02E078
BF02E2E0
FB92FF40
F2FFF400
F0AFC000
F00B8000
F41F4000
B97E0000
7FF80000
06500000
ENDCHAR
STARTCHAR divide
ENCODING 247
SWIDTH 350 0
DWIDTH 11 0
BBX 11 11 0 6
BITMAP
000500
003F00
002D00
000000
1AAAA4
FFFFFC
EA9554
000000
01A000
03F400
029000
ENDCHAR
STARTCHAR oslash
ENCODING 248
SWIDTH 406 0
DWIDTH 13 0
BBX 18 17 -2 -3
BITMAP
000001A000
00069BC000
003FFF4000
00BD2E0000
01F41E0070
03F41F02D0
07F41F1E00
0BFD1FF400
0B9FFF8000
0B46BD0000
0B407C0000
0B80F80000
07D6F00000
0FFF800000
2F69000000
7D00000000
1000000000
ENDCHAR
STARTCHAR ugrave
ENCODING 249
SWIDTH 468 0
DWIDTH 15 0
BBX 18 20 0 -1
BITMAP
0064000000
00FE000000
002FC00000
0002E00000
0000400000
0000000000
0000000000
07802D0000
1F407D0000
2F00BD0000
3E00FC0000
7D01F80060
BC02F801C0
B802F00340
F802E00A00
F802E02C00
F80BE0B400
BEAEFBD000
2FF8BF4000
0540140000
ENDCHAR
STARTCHAR uacute
ENCODING 250
SWIDTH 468 0
DWIDTH 15 0
BBX 18 20 0 -1
BITMAP
0000240000
0001F80000
000BF00000
003F400000
0014000000
0000000000
0000000000
07802D0000
1F407D0000
2F00BD0000
3E00FC0000
7D01F80060
BC02F801C0
B802F00340
F802E00A00
F802E02C00
F80BE0B400
BEAEFBD000
2FF8BF4000
0540140000
ENDCHAR
STARTCHAR ucircumflex
ENCODING 251
SWIDTH 468 0
DWIDTH 15 0
BBX 18 19 0 -1
BITMAP
0002E00000
001FF40000
00B87C0000
01A02A0000
0000000000
0000000000
07802D0000
1F407D0000
2F00BD0000
3E00FC0000
7D01F80060
BC02F801C0
B802F00340
F802E00A00
F802E02C00
F80BE0B400
BEAEFBD000
2FF8BF4000
0540140000
ENDCHAR
STARTCHAR udieresis
ENCODING 252
SWIDTH 468 0
DWIDTH 15 0
BBX 18 18 0 -1
BITMAP
007D2F0000
00FC7F0000
0090140000
0000000000
0000000000
07802D0000
1F407D0000
2F00BD0000
3E00FC0000
7D01F80060
BC02F801C0
B802F00340
F802E00A00
F802E02C00
F80BE0B400
BEAEFBD000
2FF8BF4000
0540140000
ENDCHAR
STARTCHAR yacute
ENCODING 253
SWIDTH 406 0
DWIDTH 13 0
BBX 13 33 -1 -14
BITMAP
00000600
00002F40
0001FE00
0007E400
00010000
00000000
00000100
0BC01F40
0BC01F80
0FC01F40
1F802F00
2F403E00
2F007D00
3E00FC00
7D02F800
7C07F400
7C0FF400
7E7EF000
2FF9E000
0A92E000
0003D000
0007C000
0007C000
000B8000
000F4000
001F4000
002F0000
002F0000
003E0000
007D0000
00BD0000
00BC0000
00140000
ENDCHAR
STARTCHAR thorn
ENCODING 254
SWIDTH 451 0
DWIDTH 14 0
BBX 21 36 -4 -14
BITMAP
00006D000000
0000BD000000
0000FD000000
0000FC000000
0000F8000000
0001F4000000
0002F0000000
0002F0000000
0003E0000000
0007D0500000
000BC7F80000
000B9FFC0000
000FB47D0000
001FD03D0000
001F803C0040
002E007C0240
003D00B80B00
007C01F41D00
007D43E07400
00BFEBC2E000
00FFFF9F4000
01FBFFFD0000
01F2E5500000
02E000000000
03D000000000
07D000000000
07C000000000
0BC000000000
0F8000000000
1F4000000000
1F4000000000
2F0000000000
3F0000000000
7E0000000000
3E0000000000
140000000000
ENDCHAR
STARTCHAR ydieresis
ENCODING 255
SWIDTH 406 0
DWIDTH 13 0
BBX 13 32 -1 -14
BITMAP
007D1F40
00FD3F40
00501400
00000000
00000000
00000100
0BC01F40
0BC01F80
0FC01F40
1F802F00
2F403E00
2F007D00
3E00FC00
7D02F800
7C07F400
7C0FF400
7E7EF000
2FF9E000
0A92E000
0003D000
0007C000
0007C000
000B8000
000F4000
001F4000
002F0000
002F0000
003E0000
007D0000
00BD0000
00BC0000
00140000
ENDCHAR
STARTCHAR dotlessi
ENCODING 305
SWIDTH 274 0
DWIDTH 9 0
BBX 11 14 0 -1
BITMAP
004000
0BC000
0FC000
1F8000
2F0000
3E0008
3E002C
7D0074
7C01D0
780780
782E00
3EF800
1FD000
010000
ENDCHAR
STARTCHAR Lslash
ENCODING 321
SWIDTH 492 0
DWIDTH 16 0
BBX 20 31 -3 -7
BITMAP
0000000054
00000007FE
0000001FFF
0000003F6F
000000BD2F
000000FC2E
000001F87D
000002F5F8
000003F7F0
000003FFC0
004007FE00
00FABFF800
007FFFC000
00055F8000
00001F8000
00001F4400
00006FFE00
001BFFF900
003FFE0000
0079BC0000
0000F80000
0001F40000
0002F00000
0003D00000
1BFF800000
BFFF800000
F97FF40060
FAF6FF9BD0
BF807FFFC0
000007FF40
0000001400
ENDCHAR
STARTCHAR lslash
ENCODING 322
SWIDTH 218 0
DWIDTH 7 0
BBX 11 23 -2 -1
BITMAP
000BC0
000FC0
000FC0
001F80
001F40
002F40
003F00
003E00
007E54
01BFF8
6FFFE4
FFF800
E5F400
02F000
02F000
03E000
07D000
0BC000
0BC000
0F8000
1F4000
1F0000
050000
ENDCHAR
STARTCHAR OE
ENCODING 338
SWIDTH 918 0
DWIDTH 29 0
BBX 30 30 0 -6
BITMAP
00002E5000016400
0001FFF8006FFF40
0007FEBD02F907D0
001FE43E0FD002E0
003F402F3F4002F0
00BD002FBE0003E0
00FC001FFD0007E0
02F4001FFC000FD0
03F0001FF8002F80
07D0001FF8007F00
0BC0001FF8000400
1F80001FF8000000
1F80001FFD000000
2F40001FBF000000
3F00002F5FEA0000
3F00002F6FFF0000
7E00003FF9690000
7E00007FD0000000
BD00007F40000000
BD0000BE00000000
BD0000FD00000000
BD0001FC00000900
BD0002FC00001C00
BD0007FD00002800
7D000BFD0000B400
3E001FFF0001E000
2F007E7F800BC000
1F41F82FFABF0000
0BEFE007FFF80000
01FE40006A900000
ENDCHAR
STARTCHAR oe
ENCODING 339
SWIDTH 583 0
DWIDTH 19 0
BBX 22 14 0 -1
BITMAP
00A401BE0000
07FF47EF4000
0F87DF0F4000
2F02FD1F0000
7F02F83D0000
BF82F4F80050
FBE6FBE000D0
F2FFFF400380
F06FF4000E00
F00BE0007800
F41FF001E000
B97EF95B8000
7FF4BFF90000
06401A900000
ENDCHAR
STARTCHAR Scaron
ENCODING 352
SWIDTH 474 0
DWIDTH 15 0
BBX 20 35 -2 -6
BITMAP
000001A01A
000000B8B8
0000003FE0
0000001E40
0000000000
000006A800
0000BFFF40
0003F90BD0
000FE003E0
002F4003E0
007E0003E0
007D0007E0
00BD000BD0
00BD000FC0
007E001A00
007F400000
002FC00000
000FE00000
0007F80000
0002FE0000
0000BF4000
00003F8000
00001FC000
00000FD000
000007D000
000007D000
054003D000
2F4003C000
7F0007C000
7F000B8000
7F001F4000
3F402E0000
2FD1BC0000
0FFFF00000
02FF400000
ENDCHAR
STARTCHAR scaron
ENCODING 353
SWIDTH 351 0
DWIDTH 11 0
BBX 12 21 0 -1
BITMAP
029069
01F5F4
00BF80
003E00
000000
000000
007D00
02FD00
07F800
07F400
07F400
0AB800
2C7D00
742E00
901F40
000F80
090B80
3E0B80
3F0E00
2FFC00
0BE000
ENDCHAR
STARTCHAR Ydieresis
ENCODING 376
SWIDTH 532 0
DWIDTH 17 0
BBX 18 34 0 -6
BITMAP
00002E0B80
0000BE2F80
0000641500
0000000000
0005000050
007F0003F0
00BE0007E0
00FD000BE0
01FC000FD0
02F8000FC0
03F4001F80
03F0002F40
07E0002F00
0BD0003E00
0FC0007E00
0F8000BD00
1F4000FC00
1F4001F800
2F0002F800
2F0007F400
3E000FF000
3F002EE000
2F40B9E000
2FEBE2D000
0BFF83C000
01A4078000
00000F4000
00001F0000
00003E0000
1C00BC0000
7F42F40000
BFFFE00000
7FFF400000
0AA4000000
ENDCHAR
STARTCHAR Zcaron
ENCODING 381
SWIDTH 455 0
DWIDTH 15 0
BBX 20 35 -3 -6
BITMAP
000001A029
000000B8B8
0000007FD0
0000002E00
0000000000
0000055500
000BFFFFF8
000FFFFFF8
001FE955F8
00140001F8
00000002F4
00000007F0
0000000FD0
0000002F80
0000007F00
000001FD00
000003F800
00000BE000
00001F8000
00007F0000
0000FD0000
0003F40000
000BE00000
002F800000
007F000000
00FD000000
02F4000000
07E0000000
0FC0000000
1F40000000
3E00550000
7EAFFFF800
7FFFFFF800
7FFAFFE000
2500014000
ENDCHAR
STARTCHAR zcaron
ENCODING 382
SWIDTH 349 0
DWIDTH 11 0
BBX 18 33 -4 -14
BITMAP
0002A02900
0000F5F400
00007FD000
00002E0000
0000000000
0000000000
0005AA4000
007FFFD000
00FE9BC000
00900B4000
00001F0000
00003D0000
0000B80000
0001F40090
0007D00280
001FED0A00
003FEF2800
003E0FE000
00141F4000
0002FE0000
001FAE0000
00BD3D0000
02E07C0000
0B80B80000
1F01F40000
3D02F00000
B807D00000
F40BC00000
F41F400000
F43E000000
F9FC000000
BFF4000000
2F80000000
ENDCHAR
STARTCHAR circumflex
ENCODING 710
SWIDTH 567 0
DWIDTH 18 0
BBX 8 4 7 18
BITMAP
01F4
0BFC
7D3D
A41A
ENDCHAR
STARTCHAR caron
ENCODING 711
SWIDTH 567 0
DWIDTH 18 0
BBX 8 4 7 18
BITMAP
A41A
7CB8
3FE0
1F40
ENDCHAR
STARTCHAR breve
ENCODING 728
SWIDTH 567 0
DWIDTH 18 0
BBX 8 5 7 17
BITMAP
5005
F00F
F46D
BFF4
1A80
ENDCHAR
STARTCHAR dotaccent
ENCODING 729
SWIDTH 567 0
DWIDTH 18 0
BBX 4 3 9 18
BITMAP
2E
BD
64
ENDCHAR
STARTCHAR ring
ENCODING 730
SWIDTH 567 0
DWIDTH 18 0
BBX 4 5 9 17
BITMAP
14
BB
D7
FE
14
ENDCHAR
STARTCHAR ogonek
ENCODING 731
SWIDTH 567 0
DWIDTH 18 0
BBX 8 6 7 -4
BITMAP
1400
7C00
B401
F85E
BFF4
1940
ENDCHAR
STARTCHAR tilde
ENCODING 732
SWIDTH 567 0
DWIDTH 18 0
BBX 10 3 6 18
BITMAP
6FE5B0
FEFFE0
501540
ENDCHAR
STARTCHAR hungarumlaut
ENCODING 733
SWIDTH 567 0
DWIDTH 18 0
BBX 12 5 5 17
BITMAP
006018
02F4BD
1FE7F8
7E4F90
100500
ENDCHAR
STARTCHAR endash
ENCODING 8211
SWIDTH 353 0
DWIDTH 11 0
BBX 12 3 -1 8
BITMAP
2FFFFE
7FFFFD
550000
ENDCHAR
STARTCHAR emdash
ENCODING 8212
SWIDTH 508 0
DWIDTH 16 0
BBX 17 4 -1 8
BITMAP
0055555000
3FFFFFFF80
7FFFFFFF80
1540001500
ENDCHAR
STARTCHAR quoteleft
ENCODING 8216
SWIDTH 155 0
DWIDTH 5 0
BBX 4 8 1 14
BITMAP
02
0E
2C
39
7F
BF
7D
10
ENDCHAR
STARTCHAR quoteright
ENCODING 8217
SWIDTH 154 0
DWIDTH 5 0
BBX 4 8 2 14
BITMAP
18
BE
FE
BE
2C
38
A0
40
ENDCHAR
STARTCHAR quotesinglbase
ENCODING 8218
SWIDTH 188 0
DWIDTH 6 0
BBX 4 7 -1 -4
BITMAP
7D
FE
FE
6D
38
70
80
ENDCHAR
STARTCHAR quotedblleft
ENCODING 8220
SWIDTH 289 0
DWIDTH 9 0
BBX 9 8 1 14
BITMAP
020240
0E0A00
2C1D00
393D00
7F7F40
BF7F40
7D3E00
100400
ENDCHAR
STARTCHAR quotedblright
ENCODING 8221
SWIDTH 288 0
DWIDTH 9 0
BBX 8 7 2 15
BITMAP
2919
BE7F
FEBF
BD7E
2C1D
3428
A060
ENDCHAR
STARTCHAR quotedblbase
ENCODING 8222
SWIDTH 323 0
DWIDTH 10 0
BBX 8 8 -1 -4
BITMAP
0004
7D7E
FEBF
FEBE
6D2D
382C
7074
8090
ENDCHAR
STARTCHAR bullet
ENCODING 8226
SWIDTH 180 0
DWIDTH 6 0
BBX 6 8 -1 5
BITMAP
0240
0FE0
2FF0
3FF0
7FE0
7FD0
3F80
1500
ENDCHAR
STARTCHAR ellipsis
ENCODING 8230
SWIDTH 614 0
DWIDTH 20 0
BBX 17 4 -1 -1
BITMAP
0500500140
7F42F82FC0
FF07F43F80
6806902900
ENDCHAR
STARTCHAR perthousand
ENCODING 8240
SWIDTH 851 0
DWIDTH 27 0
BBX 26 25 0 -1
BITMAP
00000000140000
00BF0001F00000
02EBC007D00000
0B82D00F800000
0F01E02E000000
1E02D07C000000
2D02D0F4000000
2D03C2E0000000
2D0B87C0000000
1E1F4F40000000
1FFD2E00000000
06E47C00000000
0000F400000000
0002D064001900
000782FF00BFC0
000F4B8782E1E0
002E1F03C7C0F0
007C2D03CB40F0
01F43C03CF00F0
02E07C079F01E0
0BC0780B5E02D0
1F403C1F1F07C0
3E003E7D0F9F40
BD001FF407FD00
50000540015000
ENDCHAR
STARTCHAR guilsinglleft
ENCODING 8249
SWIDTH 202 0
DWIDTH 6 0
BBX 7 14 -1 -1
BITMAP
0004
0078
01E0
07C0
0F40
3E00
B800
F800
7C00
3D00
1E00
0B40
0380
0140
ENDCHAR
STARTCHAR guilsinglright
ENCODING 8250
SWIDTH 202 0
DWIDTH 6 0
BBX 7 14 -2 -1
BITMAP
0500
0B00
0780
03C0
02E0
00F4
00BC
00B8
02F0
07C0
1F40
3D00
B400
4000
ENDCHAR
STARTCHAR fraction
ENCODING 8260
SWIDTH 600 0
DWIDTH 19 0
BBX 19 25 1 -1
BITMAP
0000000014
00000002F0
00000007D0
0000000F40
0000002E00
0000007C00
000000F400
000002E000
0000078000
00000F0000
00002D0000
0000B80000
0001F00000
0003D00000
000B800000
001F000000
003D000000
00B8000000
01F0000000
03E0000000
0BC0000000
1F40000000
3E00000000
BC00000000
5000000000
ENDCHAR
STARTCHAR Euro
ENCODING 8364
SWIDTH 334 0
DWIDTH 11 0
BBX 14 19 -2 2
BITMAP
00002F80
0001FAE0
0007D0B0
000F40A0
002E0000
007D0000
00B80000
06FAA400
1FFFFD00
07E00000
1BFAA000
7FEAA000
17C00000
07800000
03800000
03C00D00
01D03800
00B6E000
001A4000
ENDCHAR
STARTCHAR minus
ENCODING 8722
SWIDTH 353 0
DWIDTH 11 0
BBX 12 3 -1 8
BITMAP
2FFFFE
7FFFFD
550000
ENDCHAR
STARTCHAR fi
ENCODING 64257
SWIDTH 549 0
DWIDTH 18 0
BBX 23 38 -3 -15
BITMAP
000014000000
0002F8000000
0002F8001400
0001F800B800
0001F800F800
0002F400B400
0002F0000000
0003E0000000
0003D0000000
0007C0000000
000B80004000
000B800BC000
000F401F8000
001F002F4000
002E6BFF0000
007FF53E0008
01FE407D0028
03F8007C00B4
03F4007802D0
02F400780B40
02FE00782E00
02EF407EF400
03C7D02FD000
07C2E0010000
0B80F4000000
0F40B8000000
0F00B8000000
1F00B8000000
2E00B8000000
3D00F4000000
3D01F0000000
7C03E0000000
B80BD0000000
B81F80000000
F8BE00000000
FFFC00000000
BFE000000000
7E4000000000
ENDCHAR
STARTCHAR fl
ENCODING 64258
SWIDTH 516 0
DWIDTH 17 0
BBX 20 38 -3 -15
BITMAP
0000140000
0002F8006E
0002F800BE
0001F800BD
0001F800BD
0002F400FC
0002F001F8
0003E001F4
0003D002F4
0007C003F0
000B8003E0
000B8007D0
000F400BC0
001F001FC0
002E6BFF80
007FF51F40
01FE402F00
03F8002F00
03F4003E00
02F4007D00
02FE007C00
02EF40BC00
03C7D0F800
07C2E06400
0B80F40000
0F40B80000
0F00B80000
1F00B80000
2E00B80000
3D00F40000
3D01F00000
7C03E00000
B80BD00000
B81F800000
F8BE000000
FFFC000000
BFE0000000
7E40000000
ENDCHAR
STARTCHAR .notdef
ENCODING -1
SWIDTH 280 0
DWIDTH 9 0
BBX 1 1 0 0
BITMAP
00
ENDCHAR
ENDFONT
